<svg width="44" height="43" viewBox="0 0 44 43" fill="none" xmlns="http://www.w3.org/2000/svg">
<path d="M6.44407 19.0346C6.44407 9.21622 14.4028 1.25684 24.2203 1.25684C34.0379 1.25684 41.9966 9.21622 41.9966 19.0346C41.9966 21.5902 41.4574 24.0199 40.4866 26.216L42 36.8107L32.9213 34.5408C30.3494 35.9873 27.3812 36.8124 24.2203 36.8124M2.00211 30.1457C2.00211 31.743 2.33907 33.2615 2.94579 34.6341L2 41.2558L7.67367 39.8371C9.28096 40.7412 11.1359 41.2568 13.1112 41.2568C19.2466 41.2568 24.2203 36.2822 24.2203 30.1457C24.2203 24.0092 19.2466 19.0346 13.1112 19.0346C6.97583 19.0346 2.00211 24.0092 2.00211 30.1457Z" stroke="#F93F06" stroke-width="2.5" stroke-linecap="round" stroke-linejoin="round"/>
</svg>
