<svg width="26" height="26" viewBox="0 0 26 26" fill="none" xmlns="http://www.w3.org/2000/svg">
<path d="M21.125 6C22.1406 6 23 6.85938 23 7.875C23 8.5 22.6875 9.04688 22.2188 9.39844L13.7422 15.7656C13.2734 16.1172 12.6875 16.1172 12.2188 15.7656L3.74219 9.39844C3.27344 9.04688 3 8.5 3 7.875C3 6.85938 3.82031 6 4.875 6H21.125ZM11.4766 16.7812C12.375 17.4453 13.5859 17.4453 14.4844 16.7812L23 10.375V18.5C23 19.9062 21.8672 21 20.5 21H5.5C4.09375 21 3 19.9062 3 18.5V10.375L11.4766 16.7812Z" fill="#F93F06"/>
</svg>
