<svg width="26" height="26" viewBox="0 0 26 26" fill="none" xmlns="http://www.w3.org/2000/svg">
<path d="M3 13.619C3 13.2306 3 12.8422 3 12.4389C3.01492 12.3791 3.02983 12.3194 3.02983 12.2447C3.13424 11.6173 3.1939 10.9899 3.35797 10.3774C4.86447 4.8952 10.5474 1.7881 15.9469 3.44621C20.9288 4.98482 23.9418 10.1683 22.7336 15.2621C21.8536 18.9219 19.5566 21.3419 16.0066 22.5668C15.4398 22.761 14.8283 22.8506 14.2167 23C14.2167 20.341 14.2167 17.7418 14.2167 15.1128C15.0222 15.1128 15.8127 15.1128 16.6032 15.1128C16.7226 14.1717 16.8419 13.2605 16.9612 12.3194C16.0364 12.3194 15.1117 12.3194 14.1869 12.3194C14.1869 11.7517 14.1869 11.199 14.1869 10.6463C14.1869 10.5268 14.1869 10.3924 14.2018 10.2729C14.2764 9.5409 14.6194 9.21227 15.3503 9.18239C15.8425 9.16745 16.3348 9.16745 16.827 9.15251C16.9016 9.15251 16.9612 9.15251 17.0507 9.13757C17.0507 8.33092 17.0507 7.55415 17.0507 6.77738C17.0507 6.73256 16.9612 6.64294 16.9165 6.64294C16.1259 6.61306 15.3354 6.55331 14.5299 6.56825C13.7692 6.58319 13.0682 6.83713 12.4865 7.33008C11.7108 7.98735 11.3827 8.85375 11.3379 9.82472C11.2932 10.5716 11.323 11.3036 11.3081 12.0505C11.3081 12.1252 11.3081 12.1999 11.3081 12.3044C10.4877 12.3044 9.69721 12.3044 8.92158 12.3044C8.92158 13.2455 8.92158 14.1567 8.92158 15.0978C9.72704 15.0978 10.5176 15.0978 11.3081 15.0978C11.3081 17.697 11.3081 20.2664 11.3081 22.8506C11.2783 22.8506 11.2634 22.8656 11.2485 22.8506C10.3684 22.7012 9.53313 22.4324 8.72767 22.044C7.22117 21.3269 5.95334 20.2962 4.96889 18.9518C4.02919 17.697 3.41764 16.2929 3.14916 14.7393C3.08949 14.3957 3.04475 14.0073 3 13.619Z" fill="#F93F06"/>
</svg>
