<svg width="26" height="26" viewBox="0 0 26 26" fill="none" xmlns="http://www.w3.org/2000/svg">
<path d="M23 8.03906C23 11.3447 23 14.6553 23 17.9609C22.9658 18.1709 22.9463 18.3857 22.9024 18.5908C22.3995 20.7978 21.0619 22.2188 18.8798 22.834C18.582 22.917 18.2696 22.9463 17.962 23C14.6571 23 11.3473 23 8.04233 23C7.97886 22.9902 7.9154 22.9756 7.85194 22.9658C7.11967 22.8877 6.42158 22.6826 5.78696 22.3066C3.9563 21.2227 3.01901 19.6064 3.00924 17.4775C2.9946 14.4893 2.99948 11.501 3.00924 8.51758C3.00924 8.1416 3.02877 7.75586 3.11176 7.39453C3.60482 5.1875 4.9473 3.77637 7.12456 3.16602C7.42234 3.08301 7.73478 3.05371 8.04233 3C11.3473 3 14.6571 3 17.962 3C18.172 3.03418 18.3868 3.05371 18.5967 3.09766C20.8032 3.60059 22.2238 4.93848 22.834 7.12109C22.917 7.41894 22.9463 7.73144 23 8.03906ZM13.0071 18.4687C16.0142 18.459 18.4746 15.9932 18.4649 12.9951C18.4551 9.9873 15.9898 7.52637 12.9924 7.53613C9.98526 7.5459 7.52486 10.0117 7.53462 13.0098C7.54439 16.0176 10.0097 18.4785 13.0071 18.4687ZM16.9857 7.21387C16.9906 8.09766 17.7277 8.83008 18.6064 8.82031C19.4851 8.81055 20.2272 8.06348 20.2125 7.19922C20.1979 6.31543 19.4607 5.58301 18.5869 5.59277C17.7082 5.59766 16.9808 6.33496 16.9857 7.21387Z" fill="#F93F06"/>
<path d="M13.0071 18.4687C10.0048 18.4785 7.5395 16.0176 7.53462 13.0098C7.52486 10.0068 9.98526 7.54102 12.9924 7.53613C15.9947 7.52637 18.46 9.9873 18.4649 12.9951C18.4795 15.9932 16.0191 18.459 13.0071 18.4687ZM13.0168 8.70312C10.659 8.68848 8.71602 10.6221 8.70626 12.9902C8.69649 15.3437 10.6101 17.2725 12.9778 17.2969C15.3308 17.3213 17.2786 15.3926 17.2981 13.0195C17.3177 10.666 15.3845 8.71777 13.0168 8.70312Z" fill="#272727"/>
<path d="M16.9857 7.21387C16.9808 6.33496 17.7082 5.60253 18.5918 5.59277C19.4607 5.583 20.2028 6.31542 20.2174 7.19921C20.232 8.06835 19.49 8.81542 18.6113 8.82031C17.7326 8.82519 16.9906 8.09766 16.9857 7.21387ZM19.0409 7.20898C19.0458 6.9746 18.8456 6.76953 18.6113 6.76464C18.3819 6.75976 18.1719 6.95507 18.1622 7.18945C18.1524 7.42871 18.3623 7.64355 18.6015 7.64355C18.831 7.64843 19.036 7.44335 19.0409 7.20898Z" fill="#272727"/>
<path d="M13.0168 8.70312C15.3845 8.71777 17.3177 10.666 17.2981 13.0195C17.2786 15.3926 15.3308 17.3164 12.9778 17.2969C10.615 17.2725 8.69649 15.3437 8.70626 12.9902C8.71602 10.6221 10.6638 8.68848 13.0168 8.70312Z" fill="#F93F06"/>
<path d="M19.0409 7.20898C19.036 7.44335 18.831 7.64355 18.6015 7.64355C18.3623 7.64355 18.1524 7.42382 18.1622 7.18945C18.1719 6.95507 18.3819 6.75976 18.6113 6.76464C18.8456 6.77441 19.0458 6.97949 19.0409 7.20898Z" fill="#F93F06"/>
<path fill-rule="evenodd" clip-rule="evenodd" d="M13 17C15.2091 17 17 15.2091 17 13C17 10.7909 15.2091 9 13 9C10.7909 9 9 10.7909 9 13C9 15.2091 10.7909 17 13 17ZM13 17.5C15.4853 17.5 17.5 15.4853 17.5 13C17.5 10.5147 15.4853 8.5 13 8.5C10.5147 8.5 8.5 10.5147 8.5 13C8.5 15.4853 10.5147 17.5 13 17.5Z" fill="#272727"/>
<path fill-rule="evenodd" clip-rule="evenodd" d="M13 16.5C14.933 16.5 16.5 14.933 16.5 13C16.5 11.067 14.933 9.5 13 9.5C11.067 9.5 9.5 11.067 9.5 13C9.5 14.933 11.067 16.5 13 16.5ZM13 17C15.2091 17 17 15.2091 17 13C17 10.7909 15.2091 9 13 9C10.7909 9 9 10.7909 9 13C9 15.2091 10.7909 17 13 17Z" fill="#272727"/>
</svg>
