<svg width="26" height="26" viewBox="0 0 26 26" fill="none" xmlns="http://www.w3.org/2000/svg">
<path d="M13.5 3C11.2457 3 9.08365 3.88856 7.48959 5.47019C5.89553 7.05182 5 9.19697 5 11.4337C5 15.443 9.38077 20.2567 13.0619 23.5913L13.5131 24L13.9512 23.5783C18.0246 19.6858 22 15.5533 22 11.4337C22 10.3262 21.7801 9.22951 21.353 8.20629C20.9258 7.18306 20.2997 6.25333 19.5104 5.47019C18.7211 4.68704 17.7841 4.06581 16.7528 3.64198C15.7215 3.21814 14.6162 3 13.5 3ZM13.5 14.6775C12.8534 14.6775 12.2213 14.4872 11.6837 14.1308C11.1461 13.7744 10.7271 13.2678 10.4796 12.6751C10.2322 12.0823 10.1674 11.4301 10.2936 10.8009C10.4197 10.1717 10.7311 9.59372 11.1883 9.14007C11.6455 8.68642 12.228 8.37748 12.8622 8.25232C13.4964 8.12716 14.1537 8.19138 14.7511 8.4369C15.3485 8.68241 15.859 9.09817 16.2183 9.6316C16.5775 10.165 16.7692 10.7922 16.7692 11.4337C16.7692 12.294 16.4248 13.1191 15.8117 13.7274C15.1986 14.3357 14.3671 14.6775 13.5 14.6775Z" fill="#F93F06"/>
</svg>
