<svg width="26" height="26" viewBox="0 0 26 26" fill="none" xmlns="http://www.w3.org/2000/svg">
<path d="M22.9609 19.6172L22.0234 23.5625C21.9062 24.1484 21.4375 24.5391 20.8516 24.5391C11.0078 24.5 3 16.4922 3 6.64844C3 6.0625 3.35156 5.59375 3.9375 5.47656L7.88281 4.53906C8.42969 4.42188 9.01562 4.73438 9.25 5.24219L11.0859 9.5C11.2812 10.0078 11.1641 10.5938 10.7344 10.9062L8.625 12.625C9.95312 15.3203 12.1406 17.5078 14.875 18.8359L16.5938 16.7266C16.9062 16.3359 17.4922 16.1797 18 16.375L22.2578 18.2109C22.7656 18.4844 23.0781 19.0703 22.9609 19.6172Z" fill="#F93F06"/>
</svg>
