<svg width="52" height="66" viewBox="0 0 52 66" fill="none" xmlns="http://www.w3.org/2000/svg">
<path d="M27.758 0C28.8608 0.169657 29.9805 0.305383 31.0663 0.508972C41.4663 2.44306 49.8983 11.0277 51.6288 21.4447C51.7815 22.3608 51.8833 23.2939 51.9851 24.2101C52.1208 25.7031 51.3234 27.0603 49.8983 27.5523C48.4562 28.0443 46.9802 28.4006 45.5211 28.8248C45.2836 28.8926 45.0122 29.0453 44.8764 29.2489C42.7218 32.2858 40.5671 35.3226 38.4295 38.3765C38.3107 38.5461 38.2768 38.9194 38.3786 39.089C38.8875 39.9543 38.9893 40.8535 38.9893 41.8375C38.9724 48.4032 38.9893 54.952 38.9724 61.5177C38.9724 63.35 37.9884 64.6394 36.3257 64.9617C36.0373 65.0126 35.7319 65.0296 35.4435 65.0296C29.1323 65.0296 22.821 65.0296 16.5267 65.0296C14.3381 65.0296 12.9979 63.7063 12.9979 61.5347C12.9979 54.7993 12.9979 48.0809 12.9809 41.3455C12.9809 40.5481 13.1845 39.8355 13.5747 39.1739C13.7613 38.8685 13.7613 38.6309 13.5408 38.3256C11.3861 35.3057 9.2654 32.2858 7.11075 29.2659C6.97502 29.0623 6.70357 28.9096 6.46605 28.8417C5.09183 28.4345 3.68367 28.1122 2.32642 27.6711C0.629843 27.1282 -0.133615 25.754 0.0190766 23.9895C0.494117 18.5435 2.39428 13.6574 5.90618 9.46687C10.5548 3.91908 16.5098 0.797387 23.7372 0.135724C23.9068 0.118758 24.0595 0.0678639 24.2292 0.0169668C25.3828 1.03525e-06 26.5704 0 27.758 0ZM19.4788 43.3813C17.9858 43.3813 16.5776 43.3813 15.1525 43.3813C15.1525 43.6189 15.1525 43.8055 15.1525 43.9921C15.1525 49.7944 15.1525 55.5967 15.1525 61.382C15.1525 62.5187 15.4918 62.841 16.6285 62.841C22.8549 62.841 29.0644 62.841 35.2908 62.841C36.4614 62.841 36.8008 62.5187 36.8008 61.3311C36.8008 55.5458 36.8008 49.7774 36.8008 43.9921C36.8008 43.7716 36.7838 43.551 36.7668 43.3474C35.3078 43.3474 33.9166 43.3474 32.4745 43.3474C32.4745 43.6189 32.4745 43.8394 32.4745 44.0769C32.4745 46.3843 32.4745 48.6916 32.4745 50.999C32.4745 51.6776 32.203 52.2035 31.5753 52.475C30.9306 52.7634 30.3368 52.6277 29.8278 52.1357C29.4546 51.7624 29.0983 51.3892 28.759 51.0329C28.6572 51.0838 28.6233 51.0838 28.6233 51.1007C28.1652 51.5588 27.6902 52.0339 27.2321 52.4919C26.4177 53.2724 25.5694 53.2893 24.7721 52.5089C24.2801 52.0169 23.805 51.5079 23.2621 50.9141C22.821 51.4061 22.4647 51.8303 22.0575 52.2035C21.5825 52.6616 21.0057 52.7464 20.4119 52.4919C19.8181 52.2375 19.4957 51.7624 19.4957 51.1007C19.4957 50.4391 19.4957 49.7944 19.4957 49.1327C19.4788 47.2495 19.4788 45.3494 19.4788 43.3813ZM20.3779 28.0783C24.0934 28.0783 27.8768 28.0783 31.6601 28.0783C31.6771 27.8747 31.6771 27.7729 31.6771 27.6711C31.5583 22.3099 31.1342 16.9827 30.0993 11.7233C29.6073 9.17846 29.0135 6.6336 27.8598 4.27536C27.5544 3.64763 27.1303 3.03686 26.6553 2.51092C26.1972 1.98499 25.7052 2.00195 25.2301 2.51092C24.823 2.95203 24.3988 3.44404 24.1783 4.00391C23.5336 5.66655 22.8549 7.34616 22.3969 9.07666C21.1244 13.9628 20.6155 18.9677 20.361 24.0065C20.327 25.3298 20.3779 26.6701 20.3779 28.0783ZM22.1424 2.95203C21.4298 3.37618 20.6664 3.76639 19.9877 4.2584C17.3411 6.17552 15.5088 8.77128 14.0497 11.6555C11.912 15.863 10.7753 20.3758 10.2155 25.0414C10.1306 25.7709 10.0798 26.4835 9.99492 27.3148C12.7264 27.5523 15.3561 27.7898 18.0197 28.0443C18.0876 26.4835 18.1385 25.0923 18.2233 23.7011C18.5287 18.7132 19.0207 13.7592 20.2592 8.907C20.7682 6.90505 21.4977 4.97095 22.1424 2.95203ZM42.0092 27.2978C41.7717 25.5673 41.6021 23.9726 41.3306 22.3948C40.5332 17.797 39.142 13.4029 36.6311 9.43294C35.0194 6.87112 33.0513 4.66558 30.3029 3.25742C30.1163 3.15563 29.9127 3.08776 29.6243 2.969C31.5414 6.97291 32.3727 11.1125 32.8817 15.32C33.3906 19.5106 33.6791 23.7181 34.0693 28.0274C36.6141 27.7899 39.2269 27.5523 42.0092 27.2978ZM44.13 27.0094C45.8605 26.5005 47.5061 26.0254 49.1348 25.5334C49.6438 25.3807 49.8304 24.9396 49.8135 24.4306C49.8135 24.1931 49.7626 23.9726 49.7456 23.735C48.6768 14.6584 43.9773 8.16051 35.7319 4.24143C35.5623 4.1566 35.3587 4.1057 35.0194 3.96998C41.0931 10.5018 43.2477 18.3908 44.13 27.0094ZM7.82331 27.0094C8.70552 18.3908 10.8602 10.5018 16.7982 4.10571C16.7473 4.08874 16.6964 4.05481 16.6794 4.07177C16.4249 4.17357 16.1704 4.25839 15.916 4.37715C7.61972 8.46589 3.03897 15.1165 2.13979 24.3119C2.08889 24.8548 2.24159 25.3298 2.76752 25.4995C4.4132 26.0254 6.07584 26.4835 7.82331 27.0094ZM37.0552 36.5272C38.7518 34.135 40.3636 31.8277 41.9583 29.5882C36.9704 29.8936 32.0504 30.199 27.0964 30.5044C27.0964 31.8277 27.0964 33.2189 27.0964 34.6779C27.3509 34.6779 27.5714 34.6779 27.8089 34.6779C29.8448 34.6779 31.8637 34.7288 33.8996 34.661C35.3078 34.627 36.4445 34.9833 37.0552 36.5272ZM24.8399 30.5044C19.869 30.199 14.9319 29.8936 9.97796 29.5712C11.5897 31.8447 13.2014 34.135 14.881 36.5102C15.5088 34.8985 16.7303 34.6101 18.2063 34.661C20.1913 34.7288 22.1763 34.6779 24.1783 34.6779C24.3988 34.6779 24.6194 34.6779 24.8399 34.6779C24.8399 33.185 24.8399 31.7938 24.8399 30.5044ZM21.6673 49.489C21.8031 49.3872 21.8709 49.3363 21.9388 49.2854C22.9737 48.3353 23.6863 48.3523 24.6703 49.3533C25.0944 49.7774 25.5186 50.2185 26.0106 50.7275C26.4347 50.2694 26.8079 49.8962 27.1473 49.506C28.1652 48.3184 29.251 48.3353 30.1502 49.3872C30.1672 49.4042 30.2181 49.3872 30.269 49.3872C30.269 47.3853 30.269 45.3833 30.269 43.3644C27.3848 43.3644 24.5345 43.3644 21.6843 43.3644C21.6673 45.4172 21.6673 47.4022 21.6673 49.489ZM21.9049 41.1249C24.6703 41.1249 27.3339 41.1249 30.0484 41.1249C29.743 39.6659 29.4546 38.2747 29.1662 36.8835C28.4536 36.8835 27.792 36.8835 27.0624 36.8835C27.0624 37.2398 27.0794 37.5621 27.0624 37.8675C27.0115 38.58 26.5874 39.0042 25.9427 38.9872C25.3319 38.9703 24.9417 38.5461 24.8908 37.8675C24.8739 37.5451 24.8908 37.2058 24.8908 36.8665C24.1443 36.8665 23.4827 36.8665 22.7871 36.8665C22.4987 38.2747 22.1933 39.6828 21.9049 41.1249ZM15.1355 41.074C15.3052 41.1249 15.407 41.1588 15.5088 41.1588C16.7812 41.1588 18.0367 41.1758 19.3091 41.1419C19.4618 41.1419 19.6993 40.9213 19.7332 40.7686C19.8859 40.2257 19.9877 39.6659 20.1065 39.106C20.2592 38.3765 20.3949 37.63 20.5646 36.8326C19.4618 36.8326 18.4438 36.8156 17.4429 36.8495C17.2732 36.8495 17.0527 37.0701 16.9509 37.2398C16.391 38.3256 15.8481 39.4114 15.3052 40.5141C15.2204 40.6838 15.2034 40.8704 15.1355 41.074ZM31.3717 36.8326C31.6601 38.2407 31.9316 39.5641 32.22 40.8704C32.237 40.9722 32.3897 41.1419 32.4915 41.1419C33.8996 41.1588 35.3078 41.1588 36.7329 41.1588C36.7329 40.9552 36.7668 40.8195 36.7329 40.7177C36.1391 39.5132 35.5453 38.2916 34.9176 37.104C34.8497 36.9683 34.6122 36.8495 34.4595 36.8495C33.4755 36.8326 32.4915 36.8326 31.3717 36.8326Z" fill="black"/>
</svg>
