<svg width="56" height="50" viewBox="0 0 56 50" fill="none" xmlns="http://www.w3.org/2000/svg">
<path d="M55.9905 41.9034C55.9696 41.0131 55.4889 40.5468 54.5485 40.5045C54.2141 40.4833 53.8797 40.4833 53.5244 40.5045C53.3572 40.5045 53.19 40.5045 53.0019 40.5045H52.6884V31.5812C52.6884 28.4019 52.6884 25.2226 52.6884 22.0432C52.6884 20.7291 52.2495 20.2628 50.9328 20.2416C50.5776 20.2204 50.2014 20.2416 49.867 20.2416C49.6998 20.2416 49.5535 20.2416 49.3863 20.2416H46.0424V14.1585C46.0424 10.089 46.0424 6.04069 46.0424 1.97117C46.0424 0.445101 45.6244 0 44.1615 0C36.7422 0 29.3438 0 21.9245 0C20.5033 0 20.0645 0.445103 20.0436 1.88639C20.0227 3.28529 20.0436 4.70538 20.0436 6.08308C20.0436 6.9521 20.0436 7.82111 20.0436 8.71131C20.0436 8.94446 20.0227 9.19881 20.0018 9.45315C20.0018 9.58033 19.9809 9.7075 19.9809 9.83468L19.96 10.1314H19.6674C18.8732 10.1314 18.079 10.1314 17.3057 10.1314C15.4457 10.1314 13.6692 10.1314 11.8719 10.1314C10.5343 10.1314 10.0536 10.6189 10.0327 11.9966C10.0118 13.0352 10.0327 14.0738 10.0327 15.0911C10.0327 15.5362 10.0327 15.9813 10.0327 16.4476V20.2628H8.3399C7.35763 20.2628 6.43806 20.2628 5.49759 20.2628C3.74204 20.2628 3.36584 20.6443 3.36584 22.4036C3.36584 26.3459 3.36584 30.3095 3.36584 34.2518V40.5257H2.63437C2.40447 40.5257 2.21638 40.5257 2.02829 40.5257C0.398133 40.5469 0.0219426 40.9284 0.0219426 42.5816C0.0219426 43.1539 0.0219426 43.7262 0.0219426 44.2772C0.0219426 45.4642 0.0428407 46.7147 0.00104189 47.9229C-0.0198575 48.919 0.272735 49.5549 0.962415 50H1.77749C2.48807 49.5761 2.78066 48.9826 2.75976 48.0712C2.71797 47.0538 2.71796 46.0577 2.73886 45.0191C2.73886 44.574 2.73886 44.1289 2.73886 43.6626V43.3446H8.3817V43.6626C8.3817 44.1077 8.3817 44.5528 8.3817 44.9767C8.3817 45.9941 8.4026 47.0538 8.3608 48.0712C8.319 49.0038 8.63249 49.5973 9.34307 50H10.1581C10.8478 49.5549 11.1195 48.8978 11.0986 47.9229C11.0568 46.9267 11.0777 45.9729 11.0777 44.9555C11.0777 44.5316 11.0777 44.0865 11.0777 43.6414V43.3234H15.0277V43.6414C15.0277 44.0653 15.0277 44.5104 15.0277 44.9343C15.0277 45.9305 15.0486 46.9479 15.0068 47.9652C14.965 48.9826 15.2576 49.5973 15.9682 50H16.7833C17.4729 49.5549 17.7864 48.919 17.7446 47.9441C17.7028 46.9479 17.7237 45.9941 17.7237 44.9555C17.7237 44.5316 17.7237 44.0865 17.7237 43.6414V43.3234H23.3457V43.6414C23.3457 44.0865 23.3457 44.5528 23.3457 44.9979C23.3457 46.0153 23.3666 47.075 23.3248 48.1136C23.3039 49.0886 23.6173 49.6609 24.3279 50H25.143C25.8118 49.5549 26.0835 48.8767 26.0417 47.7957C26.0208 46.8631 26.0208 45.9305 26.0208 44.9343C26.0208 44.5104 26.0208 44.0865 26.0208 43.6626V43.3446H29.9708V43.6626C29.9708 44.1077 29.9708 44.5528 29.9708 44.9767C29.9708 45.9941 29.9917 47.0538 29.9499 48.0924C29.9081 49.0462 30.2216 49.6397 30.9321 50H31.7472C32.416 49.5549 32.7086 48.8978 32.6668 47.9017C32.6459 46.9267 32.6459 45.9729 32.6459 44.9767C32.6459 44.5528 32.6459 44.1077 32.6459 43.6626V43.3446H38.226V43.6626C38.226 44.0865 38.226 44.4892 38.226 44.8919C38.226 45.8457 38.2469 46.8207 38.2051 47.7745C38.1633 48.8554 38.435 49.5337 39.1038 49.9788H39.9189C40.6295 49.6397 40.943 49.0462 40.9221 48.0712C40.9012 47.0326 40.9011 46.0365 40.9011 44.9555C40.9011 44.5104 40.9011 44.0653 40.9011 43.599V43.2811H44.872V43.599C44.872 44.0229 44.872 44.468 44.872 44.8919C44.872 45.8669 44.8929 46.8631 44.8511 47.8593C44.8302 48.8766 45.081 49.5337 45.7289 49.9788H46.7112C47.3591 49.5337 47.6307 48.8554 47.589 47.7745C47.5681 46.8207 47.5681 45.8881 47.5681 44.8919C47.5681 44.468 47.5681 44.0441 47.5681 43.6202V43.3022H53.1691V43.6202C53.1691 44.0441 53.1691 44.468 53.1691 44.9131C53.1691 45.9093 53.19 46.9267 53.1482 47.9229C53.1064 48.8978 53.399 49.5337 54.0887 50H54.8828C55.468 49.6185 55.8651 49.237 55.8442 48.5587C55.8442 47.6897 55.8442 46.8419 55.8442 45.9729C56.0114 44.6164 56.0114 43.2387 55.9905 41.9034ZM31.0993 2.7766H34.9239V6.63417H31.0993V2.7766ZM22.8023 2.7766H28.3406V4.40865C28.3406 5.36244 28.3406 6.31624 28.3406 7.29122C28.3406 9.11403 28.6959 9.47435 30.5142 9.47435C32.207 9.47435 33.8999 9.47435 35.5927 9.47435C37.3901 9.47435 37.7035 9.15642 37.7035 7.37601C37.7035 6.40102 37.7035 5.42603 37.7035 4.45104V2.79779H43.2628V20.1992H22.8023V2.7766ZM41.5908 23.0394V26.897H37.7244V23.0394H41.5908ZM12.8124 12.908H19.96V20.1568H12.8124V12.908ZM18.3089 23.0394V26.9182H14.4634V23.0394H18.3089ZM26.6478 40.4197H6.14546V23.0182H11.7047V24.7351C11.7047 25.7736 11.7047 26.791 11.7047 27.8084C11.7047 29.2709 12.1436 29.716 13.5438 29.716C15.383 29.7372 17.2848 29.7372 19.1867 29.716C20.6078 29.6948 21.0467 29.2497 21.0467 27.8084C21.0467 26.791 21.0467 25.7524 21.0467 24.7139V23.0182H26.6269V40.4197H26.6478ZM49.9297 40.4197H29.4901V23.0182H34.9866V24.6927C34.9866 25.6677 34.9866 26.6427 34.9866 27.5964C34.9866 29.2921 35.3837 29.716 37.0348 29.716C38.8112 29.716 40.6504 29.7372 42.4895 29.716C43.9107 29.6948 44.3496 29.2497 44.3704 27.8084C44.3913 26.791 44.3704 25.7948 44.3704 24.7351C44.3704 24.2688 44.3704 23.8025 44.3704 23.3362V23.0182H49.9088V40.4197H49.9297Z" fill="black"/>
</svg>
