<svg width="50" height="40" viewBox="0 0 50 40" fill="none" xmlns="http://www.w3.org/2000/svg">
<path d="M49.152 2.02254C48.4977 0.655583 47.3563 0 45.672 0H3.57748C1.43378 0.0557943 0 1.5204 0 3.65453C0 6.3466 0 9.03867 0 11.7168C0 19.6535 8.4941e-07 27.8692 0.013921 35.9455C0.013921 36.5034 0.153123 37.1171 0.375845 37.6193C0.988331 38.9305 2.12978 39.6 3.77236 39.6H45.672C46.8134 39.6 47.7043 39.2931 48.3864 38.6375C48.9293 38.1493 49.2773 37.4659 49.5 36.5174V3.08264C49.4582 2.9571 49.4304 2.84551 49.3886 2.71997C49.319 2.4689 49.2634 2.23177 49.152 2.02254ZM45.658 37.6472C40.3962 37.6193 35.0648 37.6332 29.9144 37.6332C26.4483 37.6332 22.9682 37.6332 19.5021 37.6332C14.3795 37.6332 9.07593 37.6333 3.8698 37.6472C3.85588 37.6472 3.84196 37.6472 3.82804 37.6472C3.22947 37.6472 2.77011 37.4798 2.43602 37.159C2.10194 36.8242 1.9349 36.336 1.9349 35.7223C1.94882 27.7577 1.94882 19.6535 1.94882 11.8284C1.94882 9.17816 1.94882 6.52793 1.94882 3.87771C1.94882 2.52469 2.4917 1.96675 3.82804 1.96675H45.672C46.9944 1.96675 47.5512 2.52469 47.5512 3.83586C47.5512 6.48609 47.5512 9.15026 47.5512 11.8005C47.5512 19.6675 47.5512 27.7856 47.5651 35.7781C47.5512 36.9498 46.8412 37.6472 45.658 37.6472Z" fill="black"/>
<path d="M42.7107 16.7638C42.91 16.6408 43.1093 16.4905 43.3086 16.3265C43.4548 16.2172 43.6009 16.0942 43.7604 15.9849C43.8667 15.9165 43.8534 15.9029 43.8135 15.8072C43.1226 14.3723 43.1226 12.9238 43.8135 11.4889C43.8401 11.4342 43.8401 11.4205 43.8401 11.4205C43.8401 11.4205 43.8268 11.3932 43.7471 11.3385C43.2821 11.0106 42.8037 10.6689 42.3653 10.3C42.1394 10.1223 41.9534 9.849 41.8338 9.56202C41.6345 9.04272 41.475 8.50976 41.3023 7.9358C41.289 7.86748 41.2625 7.81281 41.2492 7.74449C39.6415 8.04513 38.2729 7.59416 37.1568 6.36426L37.1435 6.39159L37.117 6.41892C35.9477 7.59417 34.5925 8.0588 33.091 7.78549C32.9715 7.77182 32.9582 7.78548 32.9449 7.89481C32.7057 9.46636 31.8819 10.6279 30.5001 11.3522C30.4204 11.3932 30.4071 11.4205 30.4071 11.4205C30.4071 11.4205 30.4071 11.4479 30.447 11.5435C31.1379 12.9784 31.1379 14.4133 30.447 15.8072C30.3938 15.9029 30.3938 15.9165 30.5134 15.9985C30.6728 16.1078 30.819 16.2308 30.9651 16.3402C31.1777 16.5042 31.3903 16.6681 31.6029 16.8048C32.2806 17.2011 32.6127 17.8844 32.6127 18.8546V30.4158C32.6127 30.5934 32.6127 30.7574 32.626 30.9214C32.6526 31.3177 32.8253 31.5773 33.1708 31.7277C33.5162 31.8916 33.8218 31.837 34.1141 31.591C34.3001 31.427 34.4862 31.2357 34.6722 31.0444C35.4162 30.2654 36.147 29.5138 36.9177 28.7212L37.0904 28.5436L37.3694 28.8169C37.4757 28.9125 37.5554 28.9809 37.6219 29.0629C37.9407 29.3908 38.2596 29.7188 38.5785 30.0468C39.0436 30.5251 39.5219 31.017 40.0002 31.4953C40.2792 31.7687 40.638 31.8643 40.9834 31.7687C41.2757 31.6867 41.5016 31.4543 41.5813 31.1264C41.6345 30.9624 41.6212 30.7711 41.6212 30.5934V30.4978V18.9366C41.6345 18.267 41.7408 17.3241 42.7107 16.7638ZM39.7743 28.5436L39.3226 28.0789C39.203 27.9559 39.0967 27.8466 38.9771 27.7373C38.7645 27.5323 38.5652 27.341 38.3925 27.1223C37.861 26.5074 37.4624 26.2341 37.1302 26.2341C36.7848 26.2341 36.3995 26.5074 35.868 27.1223C35.589 27.4367 35.3099 27.7236 34.9512 28.0926L34.4995 28.5572V19.4149L34.8183 19.4969C35.4694 19.6472 35.9344 20.0299 36.3862 20.3852C36.6386 20.5902 36.8778 20.7815 37.1302 20.9318C37.3827 20.7815 37.6086 20.6038 37.861 20.3989C38.3128 20.0299 38.7911 19.6609 39.4289 19.4833L39.761 19.3876V28.5436H39.7743ZM41.6079 12.2951C41.5946 12.3635 41.5681 12.4181 41.5548 12.4728C41.5016 12.6504 41.475 12.7598 41.4086 12.8691C41.1562 13.4157 41.1562 13.9213 41.4219 14.4406C41.5548 14.7003 41.5813 14.9189 41.5149 15.1239C41.4485 15.3152 41.3023 15.4792 41.0764 15.5886C40.545 15.8345 40.2394 16.2855 40.1065 16.9961C40.0268 17.4471 39.7345 17.6657 39.296 17.6111C38.6449 17.5017 38.1002 17.6794 37.6219 18.1714C37.4624 18.3217 37.2897 18.4037 37.117 18.4037C36.9442 18.4037 36.7715 18.3217 36.6121 18.1577C36.147 17.6794 35.589 17.4881 34.9246 17.5974C34.4995 17.6657 34.2071 17.4471 34.1274 17.0234C34.0211 16.3402 33.6757 15.8619 33.0512 15.5202C32.6792 15.3016 32.5729 14.9463 32.7722 14.5636C33.0778 13.9623 33.0778 13.3337 32.7722 12.7051C32.6659 12.4865 32.5596 12.0628 33.0778 11.7622C33.689 11.4205 34.0344 10.9286 34.1407 10.2453C34.1673 10.0403 34.2603 9.87632 34.3932 9.78066C34.526 9.685 34.6988 9.64401 34.8981 9.67134C35.5757 9.78067 36.1603 9.58935 36.6652 9.07005C36.8114 8.91973 36.9708 8.8514 37.1435 8.8514C37.303 8.8514 37.4624 8.9334 37.5953 9.08372C38.0736 9.57568 38.6317 9.767 39.3757 9.68501C39.6548 9.65768 40.0268 9.93099 40.0799 10.2043C40.2394 10.9559 40.6114 11.4752 41.2093 11.7895C41.2757 11.8168 41.3422 11.8578 41.3953 11.8988C41.4219 11.9125 41.4485 11.9262 41.475 11.9398L41.6744 12.0492L41.6079 12.2951Z" fill="black"/>
<path d="M7.78425 26.2494C7.83767 26.6306 8.27842 26.8713 8.93287 26.8713H22.8498C23.0101 26.8713 23.1704 26.8713 23.2906 26.8513C23.6779 26.7911 23.9984 26.5303 24.0385 26.2394C24.0786 25.9485 23.8382 25.6476 23.4909 25.5473C23.3173 25.4972 23.0902 25.4671 22.8097 25.4671H15.9181C13.6075 25.4671 11.2301 25.4671 8.8928 25.457C8.51883 25.457 8.19829 25.5473 7.99795 25.7178C7.82432 25.8582 7.75754 26.0388 7.78425 26.2494Z" fill="black"/>
<path d="M7.78022 8.55066C7.82029 8.95188 8.27448 9.19261 8.99583 9.19261H22.8217C23.0087 9.19261 23.1824 9.18258 23.3293 9.15249C23.6366 9.10233 23.877 8.95188 23.9839 8.74124C24.0908 8.5306 24.0507 8.27984 23.877 8.08926C23.6767 7.87862 23.3828 7.77832 22.9553 7.77832H8.83553C8.48821 7.77832 8.19433 7.86859 8.00731 8.01905C7.83365 8.15948 7.76686 8.34002 7.78022 8.55066Z" fill="black"/>
<path d="M23.7612 20.7397C23.4942 20.5982 23.1605 20.5174 22.8802 20.5174C21.145 20.5073 19.383 20.5073 17.6878 20.5073C17.1139 20.5073 16.5266 20.5073 15.9526 20.5073H8.83809C8.49104 20.5073 8.19739 20.5982 8.01051 20.7498C7.83699 20.8912 7.7569 21.0629 7.7836 21.2751C7.81029 21.6792 8.26412 21.9216 8.98492 21.9216H22.8001C22.987 21.9216 23.1739 21.9216 23.334 21.8913C23.6944 21.8206 23.9214 21.6388 24.0148 21.3559C24.0949 21.1033 24.0014 20.871 23.7612 20.7397Z" fill="black"/>
<path d="M7.8227 16.0824C7.70278 16.3249 7.83603 16.6582 8.11586 16.7795C8.36904 16.8906 8.70217 16.9613 8.982 16.9613C10.7143 16.9714 12.4732 16.9714 14.1788 16.9714C14.7518 16.9714 15.3381 16.9714 15.9111 16.9714H21.7742C22.2539 16.9714 22.7336 16.9714 23.2133 16.9512C23.5864 16.9411 23.9195 16.7088 24.0261 16.4057C24.0928 16.1734 23.9595 15.8501 23.6397 15.7188C23.4132 15.6278 23.1067 15.5672 22.8269 15.5672C18.203 15.5571 13.5126 15.5571 8.96867 15.5571C8.86207 15.5571 8.72882 15.5571 8.62222 15.5672C8.23578 15.6076 7.96928 15.7794 7.8227 16.0824Z" fill="black"/>
<path d="M8.92348 31.8215H20.7406C20.9996 31.8215 21.2177 31.7912 21.3676 31.7508C21.7765 31.6094 21.9946 31.276 21.8992 30.9527C21.8038 30.6194 21.3813 30.4072 20.8224 30.4072H8.90985C8.22835 30.4072 7.77856 30.6901 7.77856 31.1245C7.77856 31.5488 8.22835 31.8215 8.92348 31.8215Z" fill="black"/>
</svg>
