<svg width="25" height="42" viewBox="0 0 25 42" fill="none" xmlns="http://www.w3.org/2000/svg">
<path d="M5.09949 7.38721C5.09949 11.2671 5.09949 15.3005 5.09949 19.3668C5.09949 19.871 5.12141 20.2655 5.18717 20.6382C5.74614 24.3647 9.05614 26.9732 12.9032 26.7211C16.4762 26.48 19.4136 23.3454 19.4465 19.7285C19.4903 15.8814 19.4903 11.7165 19.4465 7.01457C19.4245 4.02242 17.4736 1.37003 14.602 0.39457C14.2623 0.284967 13.9006 0.197285 13.5498 0.109603C13.3854 0.0767218 13.232 0.0328808 13.0676 0H11.5112C11.4674 0.0219205 11.4126 0.054802 11.3468 0.0657622C7.56554 0.690497 5.11045 3.56208 5.09949 7.38721ZM14.7336 2.66335C16.4324 3.58401 17.3531 5.10748 17.4517 7.17897L17.4627 7.40914H17.2325C17.09 7.40914 16.9475 7.40914 16.805 7.40914C16.5091 7.40914 16.2241 7.40914 15.9501 7.40914C15.5556 7.4201 15.2268 7.59546 15.0404 7.89139C14.8651 8.15443 14.8432 8.47228 14.9637 8.77917C15.1281 9.19566 15.435 9.4039 15.8625 9.42582C16.1584 9.43678 16.4543 9.43678 16.7612 9.42582C16.9037 9.42582 17.0462 9.42582 17.1887 9.42582H17.4079V12.3632H17.1887C17.0681 12.3632 16.9475 12.3632 16.827 12.3632C16.5639 12.3632 16.3118 12.3632 16.0488 12.3632C15.6981 12.3632 15.3912 12.4728 15.1829 12.6591C14.9856 12.8454 14.876 13.0866 14.876 13.3825C14.887 13.9853 15.3473 14.3799 16.0707 14.3908C16.3228 14.3908 16.5749 14.3908 16.827 14.3908H17.4079V17.3062H16.805C16.531 17.3062 16.257 17.3062 15.994 17.3062C15.3473 17.3172 14.887 17.7227 14.887 18.3036C14.887 18.5667 14.9747 18.8078 15.161 18.9941C15.3693 19.2024 15.6761 19.3229 16.0159 19.3339C16.268 19.3339 16.531 19.3339 16.805 19.3339C16.9366 19.3339 17.0791 19.3339 17.2215 19.3339H17.4407V19.5531C17.4079 21.2848 16.7174 22.6658 15.4021 23.6522C14.4157 24.3866 13.3854 24.7483 12.3223 24.7483C11.4893 24.7483 10.6454 24.5181 9.8124 24.0687C8.11356 23.1481 7.20386 21.6246 7.11617 19.5641L7.10521 19.3339H7.33538C7.48882 19.3339 7.63131 19.3339 7.76283 19.3339C8.0478 19.3339 8.32181 19.3339 8.58485 19.3339C9.20959 19.3229 9.68087 18.8845 9.66991 18.3146C9.65895 17.7337 9.20959 17.3172 8.56293 17.3172C8.29988 17.3172 8.02587 17.3172 7.75187 17.3172H7.1381V14.3908H7.3573C7.47786 14.3908 7.60939 14.3908 7.72995 14.3908C7.993 14.3908 8.25604 14.3908 8.50813 14.3908C9.18766 14.3799 9.65896 13.9853 9.65896 13.3934C9.65896 13.1304 9.57128 12.8893 9.40687 12.7139C9.19863 12.4947 8.88077 12.3741 8.49716 12.3741C8.23412 12.3741 7.98203 12.3741 7.71899 12.3741C7.59843 12.3741 7.47786 12.3741 7.34634 12.3741H7.12714V9.43678H7.34634C7.49978 9.43678 7.64227 9.43678 7.79571 9.43678C8.12452 9.43678 8.44237 9.44774 8.76021 9.42582C9.2315 9.39294 9.60416 9.03126 9.65896 8.52708C9.71376 8.09963 9.41783 7.6393 9.0123 7.49682C8.84789 7.44202 8.65061 7.4201 8.47525 7.4201C8.22316 7.40914 7.97107 7.40914 7.69707 7.40914C7.5765 7.40914 7.45594 7.40914 7.32442 7.40914H7.10521L7.11617 7.18993C7.16002 5.39245 7.88339 3.98953 9.27535 3.00311C11.018 1.79748 12.9032 1.67692 14.7336 2.66335Z" fill="black"/>
<path d="M24.554 19.3339C24.5321 18.8187 24.1265 18.4132 23.6004 18.3803C23.0963 18.3584 22.6469 18.7201 22.5811 19.2133C22.5373 19.4983 22.5263 19.7833 22.5044 20.0682C22.4825 20.3861 22.4606 20.7258 22.4058 21.0546C21.7043 25.5374 18.1094 28.9679 13.4622 29.6036C13.0567 29.6584 12.6402 29.6913 12.2237 29.6913C8.39856 29.6913 4.6392 27.3349 2.97324 23.7509C2.35946 22.4356 2.04161 20.9998 2.00873 19.4983C1.99777 19.1585 1.87721 18.8516 1.66896 18.6543C1.48264 18.479 1.24151 18.3913 0.967507 18.3913C0.693501 18.4023 0.452376 18.5009 0.277012 18.6872C0.0797277 18.8955 -0.0189147 19.2024 0.00300584 19.5531L0.0139668 19.6956C0.0358873 20.2984 0.0687654 20.9231 0.189328 21.515C1.21959 26.5019 4.21175 29.779 9.08906 31.2477C9.51651 31.3792 9.95492 31.4559 10.4262 31.5546C10.6345 31.5984 10.8537 31.6313 11.0729 31.6861L11.2482 31.719V34.6234H11.029C10.8646 34.6234 10.7002 34.6234 10.5468 34.6234C10.218 34.6234 9.91108 34.6234 9.59323 34.6234C6.55724 34.7002 3.98158 37.232 3.86102 40.268C3.83909 40.7393 3.92678 41.0681 4.12406 41.2763C4.32135 41.4846 4.65015 41.5832 5.12145 41.5832C6.4586 41.5832 7.79575 41.5832 9.13291 41.5722C10.4262 41.5722 11.7414 41.5722 13.0567 41.5722C15.0624 41.5722 17.0791 41.5832 19.0739 41.6051C19.7753 41.6161 20.2247 41.4846 20.4658 41.1996C20.7069 40.9146 20.7617 40.4543 20.6302 39.709C20.126 36.6949 17.7148 34.6454 14.6349 34.6234C14.3829 34.6234 14.1308 34.6234 13.8787 34.6234H13.2978V31.6861L13.4841 31.6532C13.6266 31.6313 13.7691 31.6094 13.9006 31.5874C14.1965 31.5436 14.4705 31.4998 14.7446 31.434C20.0932 30.2722 23.9183 26.0087 24.4992 20.5834C24.554 20.1888 24.5649 19.7723 24.554 19.3339ZM14.909 36.6511C16.4324 36.6949 17.5723 37.4402 18.3066 38.887C18.3505 38.9637 18.3724 39.0404 18.3943 39.1281C18.4053 39.161 18.4162 39.2048 18.4272 39.2377L18.5258 39.5336H5.99827L6.11883 39.2377C6.57916 38.054 7.40118 37.2539 8.55201 36.8484C8.91369 36.7278 9.29731 36.6511 9.659 36.6511H10.0645C11.6538 36.6292 13.2868 36.6072 14.909 36.6511Z" fill="black"/>
</svg>
