<svg width="128" height="128" viewBox="0 0 128 128" fill="none" xmlns="http://www.w3.org/2000/svg">
<path d="M96.3002 67.7998V60.2998C95.4002 57.5998 93.6002 56.0998 90.7002 55.7998H90.5002C90.2002 55.7998 89.8002 55.6998 89.5002 55.5998C89.1002 55.3998 88.5002 54.9998 88.1002 54.4998C87.3002 53.4998 87.4002 52.3998 88.3002 51.4998C88.8002 50.9998 89.2002 50.2998 89.6002 49.6998C90.8002 47.6998 90.6002 45.2998 89.1002 43.5998C87.7002 41.9998 86.1002 40.4998 84.5002 38.9998C82.7002 37.3998 80.3002 37.2998 78.2002 38.5998C77.9002 38.7998 77.6002 38.9998 77.3002 39.1998C76.9002 39.4998 76.5002 39.7998 76.0002 40.0998C75.4002 40.3998 74.6002 40.2998 74.3002 40.2998C73.0002 40.0998 72.3002 39.1998 72.2002 37.6998C72.2002 37.1998 72.0002 36.5998 71.9002 36.0998C71.3002 33.5998 69.3002 31.8998 66.7002 31.7998C65.9002 31.7998 65.1002 31.7998 64.3002 31.7998H63.4002C57.7002 31.7998 56.6002 32.7998 55.5002 38.2998C55.3002 39.2998 54.8002 39.9998 54.0002 40.2998C53.2002 40.5998 52.3002 40.4998 51.5002 39.8998L51.2002 39.6998C50.7002 39.2998 50.2002 38.9998 49.7002 38.6998C48.4002 37.8998 47.0002 37.6998 45.5002 38.0998C43.4002 38.6998 38.4002 43.5998 37.8002 45.7998C37.2002 48.0998 38.3002 49.8998 39.5002 51.5998C40.3002 52.6998 40.6002 53.6998 40.2002 54.4998C39.9002 55.2998 39.0002 55.7998 37.6002 56.0998C37.1002 56.1998 36.7002 56.2998 36.2002 56.2998C33.5002 56.8998 31.8002 58.8998 31.7002 61.7998C31.7002 62.7998 31.7002 63.7998 31.7002 64.8998V66.1998C31.7002 70.1998 33.3002 72.0998 37.3002 72.6998H37.6002C37.8002 72.6998 37.9002 72.6998 38.1002 72.7998C39.2002 72.9998 40.0002 73.4998 40.3002 74.2998C40.6002 75.0998 40.4002 75.9998 39.7002 76.9998H39.5002C39.3002 77.1998 39.1002 77.4998 39.0002 77.6998C37.2002 80.3998 37.4002 82.8998 39.6002 85.1998C40.6002 86.1998 41.7002 87.2998 42.9002 88.4998C45.3002 90.7998 47.8002 90.9998 50.6002 89.0998C50.8002 88.8998 51.1002 88.7998 51.3002 88.5998L51.7002 88.2998C52.6002 87.6998 53.5002 87.4998 54.3002 87.7998C55.0002 88.0998 55.5002 88.8998 55.6002 89.8998C55.9002 93.3998 57.4002 95.3998 60.2002 96.1998H67.8002C70.6002 95.2998 72.1002 93.2998 72.4002 89.8998C72.5002 88.8998 73.0002 88.0998 73.8002 87.7998C74.6002 87.3998 75.5002 87.5998 76.4002 88.1998L76.8002 88.4998C77.3002 88.7998 77.7002 89.1998 78.2002 89.4998C80.3002 90.7998 82.8002 90.5998 84.5002 88.9998C85.8002 87.8998 87.1002 86.5998 88.6002 84.8998C90.6002 82.7998 90.8002 80.1998 89.1002 77.7998C88.9002 77.4998 88.7002 77.2998 88.5002 76.9998L88.3002 76.6998C87.5002 75.5998 87.3002 74.6998 87.6002 73.8998C87.9002 73.0998 88.7002 72.5998 90.0002 72.3998H90.2002C91.0002 72.2998 91.9002 72.0998 92.7002 71.7998C94.9002 70.9998 95.8002 69.2998 96.3002 67.7998ZM93.0002 66.3998C93.0002 67.8998 92.4002 68.5998 90.9002 68.8998C89.9002 69.0998 88.8002 69.2998 87.5002 69.4998C86.5002 69.6998 85.8002 70.1998 85.5002 71.1998C85.3002 71.6998 85.1002 72.0998 84.9002 72.5998C84.6002 73.1998 84.3002 73.8998 84.2002 74.4998C84.0002 75.1998 84.1002 76.0998 84.4002 76.6998C84.8002 77.3998 85.3002 78.0998 85.8002 78.7998C86.0002 79.0998 86.3002 79.4998 86.5002 79.7998C87.3002 80.8998 87.2002 81.9998 86.2002 82.9998C85.7002 83.4998 85.2002 83.9998 84.8002 84.3998C84.1002 85.0998 83.5002 85.6998 82.8002 86.3998C81.8002 87.3998 80.7002 87.3998 79.6002 86.5998C79.3002 86.3998 79.0002 86.1998 78.8002 85.9998C78.2002 85.4998 77.5002 85.0998 76.8002 84.5998C75.9002 83.8998 75.1002 83.7998 74.1002 84.2998C73.4002 84.6998 72.4002 85.0998 71.4002 85.3998C70.1002 85.7998 69.5002 86.4998 69.4002 87.8998C69.3002 88.6998 69.2002 89.4998 69.0002 90.2998L68.8002 90.9998C68.6002 92.2998 67.8002 92.9998 66.4002 92.9998C65.6002 92.9998 64.7002 92.9998 63.9002 92.9998C63.1002 92.9998 62.2002 92.9998 61.4002 92.9998C60.1002 92.9998 59.3002 92.2998 59.1002 90.9998C59.0002 90.5998 59.0002 90.1998 58.9002 89.8998C58.8002 89.0998 58.7002 88.2998 58.5002 87.4998C58.4002 87.0998 58.2002 86.2998 57.9002 86.0998C56.7002 85.3998 55.3002 84.8998 54.1002 84.2998C53.7002 84.0998 53.2002 83.8998 52.8002 83.6998C52.6002 83.7998 52.5002 83.8998 52.3002 83.8998C51.9002 84.0998 51.6002 84.1998 51.3002 84.3998C50.4002 84.9998 49.4002 85.6998 48.4002 86.4998C47.3002 87.2998 46.2002 87.1998 45.2002 86.2998C44.0002 85.0998 42.9002 83.9998 41.7002 82.7998C40.8002 81.8998 40.7002 80.7998 41.5002 79.6998L42.0002 78.9998C42.5002 78.2998 43.1002 77.4998 43.6002 76.7998C44.2002 75.9998 44.3002 75.1998 43.9002 74.2998C43.4002 73.2998 43.0002 72.1998 42.5002 70.9998C42.2002 70.0998 41.6002 69.5998 40.6002 69.4998C39.2002 69.2998 38.1002 69.0998 37.1002 68.8998C35.6002 68.5998 35.0002 67.8998 34.9002 66.2998C34.9002 64.6998 34.9002 63.1998 34.9002 61.6998C34.9002 60.0998 35.5002 59.3998 37.1002 59.0998C38.2002 58.8998 39.3002 58.6998 40.5002 58.4998C41.4002 58.3998 42.0002 57.8998 42.3002 56.9998C42.7002 55.9998 43.1002 54.8998 43.7002 53.5998C44.1002 52.7998 44.0002 52.0998 43.5002 51.2998L43.4002 51.0998C42.7002 50.1998 42.0002 49.1998 41.4002 48.2998C40.5002 46.9998 40.6002 46.1998 41.7002 44.9998C42.7002 43.8998 43.8002 42.7998 45.0002 41.6998C46.1002 40.5998 47.0002 40.5998 48.4002 41.4998C49.4002 42.1998 50.3002 42.8998 51.2002 43.4998C51.9002 44.0998 52.7002 44.0998 53.6002 43.6998C54.7002 43.1998 55.9002 42.6998 57.0002 42.2998C57.8002 41.9998 58.3002 41.3998 58.4002 40.4998L58.5002 39.9998C58.7002 38.9998 58.8002 37.8998 59.0002 36.7998C59.3002 35.2998 60.0002 34.6998 61.5002 34.6998C62.9002 34.6998 64.4002 34.6998 66.1002 34.6998C67.7002 34.6998 68.4002 35.2998 68.7002 36.9998C68.9002 38.1998 69.1002 39.2998 69.3002 40.3998C69.4002 41.2998 69.9002 41.7998 70.7002 42.1998C71.2002 42.3998 71.6002 42.5998 72.1002 42.7998C72.8002 43.0998 73.6002 43.4998 74.4002 43.6998C75.1002 43.8998 76.0002 43.7998 76.6002 43.4998C77.3002 43.1998 78.0002 42.6998 78.6002 42.1998C78.9002 41.8998 79.3002 41.6998 79.6002 41.4998C80.9002 40.5998 81.8002 40.6998 82.9002 41.6998C83.9002 42.6998 85.0002 43.7998 86.2002 44.9998C87.3002 46.0998 87.4002 46.9998 86.4002 48.3998C85.8002 49.2998 85.2002 50.1998 84.5002 50.9998L84.3002 51.2998C83.8002 51.9998 83.7002 52.6998 84.1002 53.5998L84.3002 53.9998C84.7002 54.7998 85.1002 55.5998 85.3002 56.3998C85.7002 57.6998 86.5002 58.3998 87.9002 58.5998C88.5002 58.6998 89.2002 58.7998 89.8002 58.8998C90.2002 58.9998 90.5002 58.9998 90.9002 59.0998C92.3002 59.2998 93.0002 60.0998 93.0002 61.4998C93.0002 61.9998 93.0002 62.4998 93.0002 62.9998C93.0002 64.1998 93.0002 65.2998 93.0002 66.3998Z" fill="#F93F06"/>
<path d="M64 51.5996C60.8 51.5996 57.6 52.9996 55.2 55.2996C52.8 57.6996 51.5 60.8996 51.5 64.0996C51.6 70.7996 57.2 76.3996 63.9 76.3996C63.9 76.3996 63.9 76.3996 64 76.3996C70.7 76.3996 76.4 70.6996 76.4 63.9996C76.4 57.2996 70.7 51.5996 64 51.5996ZM64 73.0996C59.1 73.0996 54.9 68.8996 54.9 63.9996C54.9 59.0996 59 54.8996 63.9 54.8996C66.2 54.8996 68.6 55.7996 70.3 57.5996C72.1 59.2996 73.1 61.6996 73 64.0996C73.1 68.9996 68.9 73.0996 64 73.0996Z" fill="#F93F06"/>
</svg>
