<svg width="128" height="128" viewBox="0 0 128 128" fill="none" xmlns="http://www.w3.org/2000/svg">
<path d="M70.4 83.0999C72.7 87.0999 74.8 90.7999 77.1 94.7999C78.1 92.7999 78.9 91.1999 79.6 89.4999C80.2 88.0999 81.1 87.6999 82.6 87.8999C84.4 88.1999 86.2 88.1999 88.3 88.3999C87 86.1999 86 84.2 84.9 82.2999C84.3 81.2 83.5 80.1999 83.1 78.9999C82.9 78.3999 83.3 77.6999 83.4 76.9999C84.1 77.1999 85.1 77.1999 85.3 77.5999C87.4 80.9999 89.4 84.4999 91.2 87.9999C92.1 89.6999 90.9 91.2999 89 91.2999C87.2 91.2999 85.3 91.0999 83.5 90.7999C82.5 90.7 82 90.8999 81.6 91.8999C80.9 93.3999 80.3 94.9999 79.4 96.3999C78.9 97.2 78 97.9999 77.2 98.0999C76.4 98.0999 75.3 97.2999 74.9 96.5999C72.4 92.4999 70 88.2999 67.7 83.9999C66.8 82.3999 65.6 82.0999 64 82.0999C62.4 82.0999 61.1 82.3999 60.2 84.0999C58.1 88.0999 55.8 91.8999 53.6 95.7999C52.9 96.9999 52.4 98.3999 50.7 98.2999C49 98.2 48.7 96.7999 48.1 95.6999C47.9 95.1999 47.6 94.6999 47.4 94.1999C45.7 90.7999 45.7 90.7999 41.9 91.1999C41.1 91.2999 40.2 91.4999 39.4 91.3999C38.5 91.2999 37.3 90.9999 37 90.3999C36.6 89.6999 36.7 88.3999 37.1 87.5999C39.1 83.7999 41.3 80.0999 43.4 76.2999C43.6 75.8999 43.8 75.4999 44.1 74.8999C40.8 73.1999 40.5 70.1999 40.2 66.9999C40 65.2999 39.4 63.3999 38.5 61.9999C36 58.2999 35.9 54.9999 38.4 51.1999C39.5 49.4999 40.1 47.3999 40.2 45.3999C40.4 41.3999 42.1 38.6999 46 37.4999C48.3 36.7999 50.1 35.3999 51.5 33.3999C53.8 30.1999 56.8 29.2999 60.5 30.4999C62.9 31.2999 65.3 31.1999 67.7 30.4999C71.3 29.2999 74.3 30.2999 76.5 33.3999C78 35.3999 79.8 36.7999 82.2 37.5999C85.9 38.7999 87.8 41.3999 87.8 45.2999C87.8 47.5999 88.4 49.7999 89.8 51.6999C92.2 54.9999 92.3 58.2999 89.9 61.5999C88.5 63.5999 87.8 65.6999 87.8 68.0999C87.8 71.8999 86 74.4999 82.4 75.6999C80 76.4999 78.1 77.8999 76.6 79.8999C75 81.4999 73.3 82.9999 70.4 83.0999ZM70.1 80.1999C71.8 80.2999 72.7 79.8999 74 78.1999C76 75.5999 78.5 73.7999 81.6 72.6999C83.8 71.9999 84.9 70.3999 84.9 68.0999C84.9 64.7999 85.9 61.9 87.8 59.1999C89.2 57.2999 89.1 55.3999 87.8 53.4999C85.9 50.7999 84.9 47.8999 84.9 44.5999C84.9 42.2999 83.7 40.6999 81.6 39.9999C78.5 38.9999 76 37.1999 74.1 34.4999C72.8 32.6999 71 32.0999 68.9 32.7999C65.7 33.7999 62.5 33.7999 59.2 32.7999C57.4 32.1999 55.6 32.4999 54.4 34.1999C52.2 37.0999 49.5 39.0999 46 40.2999C44.3 40.8999 43.3 42.1999 43.3 44.0999C43.2 47.5999 42.3 50.7999 40.2 53.6999C38.9 55.4 38.9 57.2999 40.2 58.9999C42.3 61.7999 43.2 64.8999 43.2 68.3999C43.2 70.2999 44.2 71.7999 46 72.3999C49.4 73.4999 52.2 75.4999 54.3 78.3999C55.4 79.9999 57.1 80.4999 58.9 79.8999C62.4 78.7999 65.8 78.7999 69.3 79.8999C69.5 80.1999 69.9 80.1999 70.1 80.1999ZM57.5 83.0999C54.3 82.9999 52.6 81.0999 51 79.0999C49.9 77.6999 48.7 76.3999 46.7 76.0999C44.4 80.1999 42.1 84.1999 39.7 88.4999C42 88.2999 43.9 88.1999 45.8 87.9999C47.1 87.7999 47.8 88.1999 48.3 89.3999C49.1 91.1999 50 92.8999 51 94.8999C53.1 90.6999 55.2 87.0999 57.5 83.0999Z" fill="#F93F06"/>
<path d="M62.1999 59.3999C64.0999 57.3999 65.6999 55.6999 67.3999 54.0999C68.3999 53.0999 69.2999 52.1999 70.2999 51.1999C70.9999 50.4999 71.7999 49.5999 72.8999 50.5999C73.8999 51.5999 73.0999 52.3999 72.3999 53.1999C70.1999 55.3999 68.0999 57.4999 65.8999 59.6999C61.8999 63.6999 62.6999 63.4999 58.7999 59.6999C57.9999 58.8999 57.1999 58.0999 56.3999 57.2999C55.5999 56.5999 55.0999 55.6999 55.9999 54.8999C56.8999 53.9999 57.7999 54.6999 58.3999 55.3999C59.6999 56.4999 60.7999 57.8999 62.1999 59.3999Z" fill="#F93F06"/>
<path d="M64 75.2C53.5 75.2 44.9 66.6 44.9 56.1C44.9 45.6 53.5 37 64 37C74.5 37 83.1 45.6 83.1 56.1C83.1 66.6 74.5 75.2 64 75.2ZM64 40C55.1 40 47.9 47.2 47.9 56.1C47.9 65 55.1 72.2 64 72.2C72.9 72.2 80.1 65 80.1 56.1C80.1 47.2 72.9 40 64 40Z" fill="#F93F06"/>
</svg>
