<svg width="128" height="128" viewBox="0 0 128 128" fill="none" xmlns="http://www.w3.org/2000/svg">
<path d="M37.5 63.8999C37.5 53.3999 37.5 42.8999 37.5 32.3999C37.5 29.6999 38.8 28.3999 41.5 28.3999C53.6 28.3999 65.7 28.3999 77.7 28.3999C78.5 28.3999 79 28.5999 79.6 29.1999C83 32.4999 86.3 35.6999 89.7 38.9999C90.3 39.4999 90.5 40.0999 90.5 40.8999C90.5 59.1999 90.5 77.4999 90.5 95.7999C90.5 98.3999 89.2 99.6999 86.6 99.6999C71.4 99.6999 56.3 99.6999 41.1 99.6999C38.8 99.6999 37.4 98.2999 37.4 95.9999C37.4 85.1999 37.5 74.5999 37.5 63.8999ZM39.8 63.9999C39.8 74.4999 39.8 85.0999 39.8 95.5999C39.8 96.8999 40.1 97.1999 41.4 97.1999C56.5 97.1999 71.5 97.1999 86.6 97.1999C87.9 97.1999 88.2 96.8999 88.2 95.5999C88.2 90.2999 88.2 84.8999 88.2 79.5999C88.2 67.1999 88.2 54.6999 88.2 42.2999C88.2 41.4999 88 41.2999 87.2 41.2999C85.1 41.3999 83 41.2999 80.9 41.2999C78.6 41.2999 77.2 39.8999 77.2 37.5999C77.2 35.5999 77.2 33.5999 77.2 31.6999C77.2 30.6999 77.2 30.6999 76.2 30.6999C64.7 30.6999 53.2 30.6999 41.7 30.6999C40.1 30.6999 39.9 30.8999 39.9 32.4999C39.8 42.9999 39.8 53.4999 39.8 63.9999ZM86.1 38.9999C86.1 38.8999 86.2 38.8999 86.2 38.7999C84 36.6999 81.8 34.5999 79.5 32.2999C79.5 34.3999 79.5 36.1999 79.5 37.9999C79.5 38.6999 80 38.9999 80.6 38.9999C82.5 38.9999 84.3 38.9999 86.1 38.9999Z" fill="#F93F06"/>
<path d="M76.6 91.7998C76.4 92.0998 76.2 92.2998 76 92.5998C75.3 93.6998 74.5 94.6998 73.8 95.7998C73.1 96.6998 72.1 96.6998 71.7 95.7998C71.1 94.1998 70.1 93.4998 68.4 93.4998C67.4 93.4998 67 92.4998 67.6 91.5998C68.6 90.0998 69.7 88.5998 70.8 87.0998C71.1 86.6998 71.1 86.3998 70.8 85.9998C68.4 82.8998 68.8 78.6998 71.6 75.9998C74.4 73.3998 78.7 73.3998 81.6 75.8998C84.5 78.4998 84.9 82.6998 82.5 85.7998C82.1 86.2998 82.1 86.5998 82.5 87.0998C83.5 88.4998 84.5 89.8998 85.5 91.3998C86.3 92.4998 85.9 93.4998 84.5 93.4998C83 93.4998 82.1 94.0998 81.6 95.5998C81.1 96.7998 80.1 96.7998 79.3 95.7998C78.4 94.3998 77.6 93.0998 76.6 91.7998ZM82.6 91.2998C82.4 90.9998 82.3 90.6998 82.1 90.4998C81.3 89.2998 80.5 88.1998 79.7 86.9998C79.2 86.1998 79.3 85.7998 79.9 85.0998C80.3 84.5998 80.8 84.0998 81.1 83.5998C82.4 81.2998 81.6 78.3998 79.5 76.9998C77.2 75.4998 74.3 75.9998 72.6 78.1998C71.1 80.1998 71.4 83.1998 73.3 84.8998C74.1 85.5998 74.2 86.0998 73.6 86.9998C72.8 88.1998 72 89.2998 71.2 90.3998C71.1 90.5998 70.9 90.7998 70.7 91.1998C72 90.9998 72.6 91.6998 73 92.5998C73.1 92.4998 73.2 92.4998 73.2 92.3998C73.9 91.3998 74.7 90.2998 75.4 89.2998C76.3 87.9998 77.1 87.9998 78 89.2998C78.6 90.1998 79.3 91.1998 79.9 92.0998C80 92.2998 80.2 92.3998 80.4 92.5998C80.7 91.6998 81.4 91.1998 82.6 91.2998Z" fill="#F93F06"/>
<path d="M64.5001 59.6999C58.5001 59.6999 52.5001 59.6999 46.5001 59.6999C45.3001 59.6999 44.7001 59.2999 44.7001 58.5999C44.7001 57.7999 45.3001 57.3999 46.6001 57.3999C58.6001 57.3999 70.6001 57.3999 82.6001 57.3999C82.9001 57.3999 83.2001 57.3999 83.5001 57.3999C84.1001 57.4999 84.5001 57.8999 84.5001 58.4999C84.5001 59.0999 84.1001 59.4999 83.5001 59.5999C83.2001 59.5999 82.9001 59.5999 82.6001 59.5999C76.4001 59.6999 70.4001 59.6999 64.5001 59.6999Z" fill="#F93F06"/>
<path d="M64.5 51.9C58.5 51.9 52.5 51.9 46.5 51.9C46.4 51.9 46.4 51.9 46.3 51.9C45.1 51.9 44.5 51.5 44.5 50.7C44.5 49.9 45.1 49.5 46.3 49.5C58.3 49.5 70.4 49.5 82.4 49.5C82.6 49.5 82.7 49.5 82.9 49.5C83.7 49.6 84.2 50 84.2 50.7C84.2 51.4 83.7 51.9 82.8 51.9C79.1 51.9 75.4 51.9 71.6 51.9C69.3 51.9 66.9 51.9 64.5 51.9Z" fill="#F93F06"/>
<path d="M64.4 67.5997C58.4 67.5997 52.3 67.5997 46.3 67.5997C46 67.5997 45.5 67.5997 45.3 67.3997C45 67.1997 44.6 66.6997 44.6 66.3997C44.6 66.0997 45 65.5997 45.3 65.3997C45.6 65.1997 46 65.1997 46.4 65.1997C58.4 65.1997 70.5 65.1997 82.5 65.1997C82.8 65.1997 83.1 65.1997 83.4 65.2997C84 65.3997 84.3 65.7997 84.4 66.3997C84.4 66.9997 84.1 67.3997 83.5 67.4997C83.2 67.5997 82.9 67.5997 82.6 67.5997C76.5 67.5997 70.5 67.5997 64.4 67.5997Z" fill="#F93F06"/>
<path d="M54.7001 73C57.5001 73 60.3001 73 63.1001 73C63.4001 73 63.7001 73 64.0001 73.1C64.6001 73.2 64.9001 73.6 64.9001 74.2C64.9001 74.8 64.6001 75.2 64.0001 75.3C63.7001 75.4 63.5001 75.4 63.2001 75.4C57.6001 75.4 52.0001 75.4 46.4001 75.4C45.3001 75.4 44.7001 75 44.7001 74.2C44.7001 73.4 45.3001 73 46.4001 73C49.1001 73 51.9001 73 54.7001 73Z" fill="#F93F06"/>
</svg>
