<svg width="128" height="128" viewBox="0 0 128 128" fill="none" xmlns="http://www.w3.org/2000/svg">
<path d="M93.8 71.6998C91.3 70.0998 90.4 67.8998 90.5 65.0998C90.6 62.6998 90.6 60.3998 90.5 57.9998C90.4 55.0998 91.2 52.6998 93.7 51.0998C90.7 40.9998 80.3999 31.3998 67.5999 29.9998C59.3999 29.0998 52 31.0998 45.4 35.9998C40.1 39.7998 36.4 44.8998 34.2 51.0998C35.8 52.0998 36.9 53.3998 37.2999 55.2998C37.4 55.7998 37.5 56.2998 37.5 56.8998C37.5 59.9998 37.5 63.0998 37.5 66.0998C37.5 69.6998 34.7 72.5998 31.2 72.5998C27.7 72.5998 24.7 69.6998 24.7 66.0998C24.7 63.0998 24.7 59.9998 24.7 56.9998C24.7 53.4998 27.2 50.6998 30.7 50.3998C31.5 50.2998 31.7 49.9998 32 49.3998C36.7 37.3998 45.4 29.9998 58 27.5998C74 24.5998 90 33.4998 96 48.9998C96.3 49.8998 96.7 50.1998 97.7 50.2998C101.2 50.6998 103.4 53.3998 103.4 56.8998C103.4 59.8998 103.4 62.7998 103.4 65.7998C103.4 69.4998 100.9 72.1998 97.2 72.4998C96.6 72.4998 96.3999 72.6998 96.2 73.2998C91.7999 84.3998 83.9 91.5998 72.3 94.5998C71.7 94.6998 71.5 94.9998 71.4 95.5998C70.8 98.8998 67.5 101.3 64.3 100.8C60.8 100.3 58.5 97.4998 58.5999 93.8998C58.6999 90.6998 61.4 87.8998 64.8 87.7998C67.8 87.6998 69.8999 89.2998 71.0999 91.9998C80.7 90.2998 90.4 82.1998 93.8 71.6998ZM34.7999 61.3998C34.7999 59.8998 34.7999 58.2998 34.7999 56.7998C34.7999 54.6998 33.2 52.9998 31.1 52.9998C29.1 52.8998 27.3999 54.6998 27.2999 56.7998C27.2999 59.8998 27.2999 62.8998 27.2999 65.9998C27.2999 68.0998 29 69.6998 31 69.7998C33.1 69.7998 34.7 68.1998 34.7 65.9998C34.8 64.4998 34.7999 62.8998 34.7999 61.3998ZM93.2 61.2998C93.2 62.8998 93.2 64.3998 93.2 65.9998C93.2 68.0998 94.7999 69.6998 96.8999 69.7998C98.8999 69.7998 100.6 68.1998 100.7 66.0998C100.7 62.9998 100.8 59.7998 100.7 56.6998C100.7 54.6998 98.7999 52.9998 96.8999 52.9998C94.8999 53.0998 93.3 54.6998 93.3 56.6998C93.2 58.2998 93.2 59.7998 93.2 61.2998ZM68.6999 94.4998C68.6999 92.2998 67.0999 90.6998 65 90.5998C62.9 90.5998 61.2 92.1998 61.2 94.3998C61.2 96.4998 62.8 98.1998 64.9 98.2998C67 98.2998 68.6999 96.4998 68.6999 94.4998Z" fill="#F93F06"/>
<path d="M63.4999 79.5997C62.6999 79.5997 61.8999 79.6997 61.1999 79.7997C59.1999 80.0997 57.2999 80.8997 55.3999 81.4997C53.1999 82.1997 50.9999 82.7997 48.7999 83.4997C47.9999 83.6997 47.2999 83.7997 46.7999 82.9997C46.2999 82.1997 46.8999 81.6997 47.2999 80.9997C48.4999 79.0997 49.5999 77.1997 50.4999 75.2997C50.6999 74.9997 50.2999 74.1997 49.8999 73.7997C46.7999 70.4997 44.9999 66.5997 44.5999 62.0997C43.5999 52.2997 50.9999 42.7997 60.7999 41.3997C71.4999 39.7997 81.1999 46.7997 82.8999 57.4997C83.6999 62.1997 82.4999 67.0997 79.8999 71.0997C77.9999 73.9997 75.1999 76.2997 71.9999 77.7997C70.4999 78.4997 68.7999 79.0997 67.1999 79.3997C66.0999 79.4997 64.7999 79.4997 63.4999 79.5997ZM51.5999 79.7997C53.0999 79.2997 54.3999 78.8997 55.6999 78.4997C57.9999 77.8997 60.0999 76.9997 62.4999 76.8997C64.4999 76.7997 66.4999 76.8997 68.4999 76.2997C69.9999 75.7997 71.3999 75.2997 72.7999 74.4997C75.3999 72.8997 77.4999 70.5997 78.8999 67.8997C80.3999 64.8997 80.8999 61.5997 80.4999 58.2997C79.5999 49.5997 70.9999 42.6997 62.2999 43.8997C55.5999 44.7997 50.7999 48.4997 48.4999 54.8997C46.0999 61.1997 47.5999 66.9997 52.1999 71.9997C53.4999 73.3997 53.7999 74.8997 52.9999 76.5997C52.5999 77.5997 52.0999 78.5997 51.5999 79.7997Z" fill="#F93F06"/>
<path d="M64.6 52.5C67.7 52.5 70.9 52.5 74 52.5C74.9 52.5 75.7 52.7 75.7 53.8C75.7 54.7 75.2001 55.2 74 55.2C67.7 55.2 61.4 55.2 55.1 55.2C53.9 55.2 53.3 54.7 53.3 53.8C53.3 52.9 53.9 52.5 55.1 52.5C58.3 52.5 61.4 52.5 64.6 52.5Z" fill="#F93F06"/>
<path d="M63.3999 68.0999C60.1999 68.0999 56.9999 68.0999 53.7999 68.0999C52.5999 68.0999 52.0999 67.5999 52.1999 66.5999C52.2999 65.4999 53.1999 65.3999 53.9999 65.3999C56.8999 65.3999 59.8999 65.3999 62.7999 65.3999C66.0999 65.3999 69.3999 65.3999 72.6999 65.3999C73.1999 65.3999 73.8999 65.6999 74.2999 65.9999C74.5999 66.1999 74.5999 66.9999 74.3999 67.2999C74.0999 67.6999 73.4999 67.9999 72.9999 67.9999C70.1999 68.0999 67.3999 67.9999 64.5999 67.9999C64.1999 68.0999 63.7999 68.0999 63.3999 68.0999Z" fill="#F93F06"/>
<path d="M61.5999 59C63.9999 59 66.2999 59 68.6999 59C69.5999 59 70.2 59.3 70.3 60.3C70.4 61.1 69.6999 61.7 68.5999 61.7C63.8999 61.7 59.2 61.7 54.4 61.7C53.3 61.7 52.7 61.1 52.7 60.3C52.8 59.2 53.5 59 54.4 59C56.8 59 59.1999 59 61.5999 59Z" fill="#F93F06"/>
</svg>
