<svg width="128" height="128" viewBox="0 0 128 128" fill="none" xmlns="http://www.w3.org/2000/svg">
<g clip-path="url(#clip0_87_2284)">
<path d="M92.6001 46.8001C70.6001 46.8001 48.7001 46.8001 26.6 46.8001C26.6 47.2001 26.6 47.5001 26.6 47.8001C26.6 60.9001 26.6 74.0001 26.6 87.1001C26.6 90.1001 28 91.5001 31 91.5001C50 91.5001 69.1 91.5001 88.1 91.5001C91.1001 91.5001 92.5 90.0001 92.5 87.1001C92.5 85.4001 92.5 83.8001 92.5 82.1001C92.5 81.5001 92.7001 81.0001 93.4001 81.0001C94.1001 81.0001 94.4001 81.5001 94.4001 82.1001C94.4001 84.0001 94.5001 86.0001 94.4001 87.9001C94.3001 91.0001 91.8 93.3001 88.6 93.4001C81.5 93.4001 74.3 93.4001 67.2 93.4001C55.1 93.4001 43.1 93.4001 31 93.4001C27.1 93.4001 24.8 91.1001 24.8 87.2001C24.8 71.7001 24.8 56.2001 24.8 40.8001C24.8 36.9001 27.1 34.6001 31 34.6001C50.1 34.6001 69.2001 34.6001 88.3001 34.6001C92.2001 34.6001 94.5 36.9001 94.5 40.8001C94.5 45.5001 94.5 50.2001 94.5 54.9001C94.5 55.1001 94.5 55.3001 94.5 55.5001C94.5 56.2001 94.2 56.6001 93.5 56.6001C92.9 56.6001 92.6001 56.1001 92.6001 55.5001C92.6001 53.5001 92.6001 51.5001 92.6001 49.5001C92.6001 48.6001 92.6001 47.7001 92.6001 46.8001ZM26.8 44.8001C48.8 44.8001 70.7 44.8001 92.7 44.8001C92.7 43.5001 92.6 42.2001 92.7 41.0001C92.9 38.5001 91.3 36.5001 88.2 36.5001C69.2 36.6001 50.2001 36.5001 31.2001 36.5001C30.8001 36.5001 30.4001 36.5001 30.1 36.5001C28.5001 36.6001 27 37.9001 26.9 39.5001C26.6 41.3001 26.8 43.0001 26.8 44.8001Z" fill="#F93F06"/>
<path d="M44.6001 51.2002C48.4001 51.2002 52.1001 51.2002 55.9001 51.2002C57.3001 51.2002 57.5001 51.4002 57.5001 52.8002C57.5001 59.9002 57.5001 67.1002 57.5001 74.2002C57.5001 75.6002 57.3001 75.8002 55.9001 75.8002C48.3001 75.8002 40.7001 75.8002 33.1001 75.8002C31.8001 75.8002 31.6001 75.5002 31.6001 74.3002C31.6001 67.1002 31.6001 60.0002 31.6001 52.8002C31.6001 51.5002 31.8001 51.3002 33.1001 51.3002C37.0001 51.2002 40.8001 51.2002 44.6001 51.2002ZM33.5001 68.3002C35.3001 66.4002 37.0001 64.7002 38.6001 62.9002C39.6001 61.9002 39.8001 61.9002 40.8001 62.9002C42.3001 64.4002 43.7001 66.0002 45.1001 67.4002C46.2001 66.3002 47.3001 65.3002 48.4001 64.3002C49.3001 63.4002 49.5001 63.4002 50.4001 64.3002C51.9001 65.8002 53.4001 67.4002 54.9001 69.0002C55.1001 69.2002 55.4001 69.4002 55.7001 69.8002C55.7001 64.1002 55.7001 58.7002 55.7001 53.2002C48.3001 53.2002 41.0001 53.2002 33.6001 53.2002C33.5001 58.1002 33.5001 63.1002 33.5001 68.3002ZM33.5001 73.8002C41.0001 73.8002 48.3001 73.8002 55.6001 73.8002C55.8001 72.9002 55.6001 72.4002 55.0001 71.8002C53.1001 69.9002 51.3001 68.0002 49.6001 66.2002C48.6001 67.1002 47.6001 68.0002 46.5001 69.0002C47.2001 69.7002 47.8001 70.4002 48.5001 71.1002C48.9001 71.6002 49.1001 72.0002 48.6001 72.5002C48.1001 73.0002 47.6001 72.8002 47.1001 72.4002C46.6001 71.9002 46.2001 71.4002 45.7001 70.9002C43.7001 68.8002 41.8001 66.8002 39.7001 64.6002C37.7001 66.7002 35.7001 68.8002 33.7001 70.9002C33.5001 71.1002 33.5001 71.3002 33.4001 71.6002C33.5001 72.2002 33.5001 73.0002 33.5001 73.8002Z" fill="#F93F06"/>
<path d="M80.5001 82.2003C79.9001 80.1003 81.1001 78.1003 82.5001 76.0003C86.5001 70.3003 90.4001 64.5003 94.2001 58.7003C96.2001 55.7003 99.6001 56.0003 101.6 57.9003C103.4 59.6003 103.6 61.8003 102.3 63.8003C99.7001 67.7003 97.1001 71.5003 94.5001 75.3003C92.6001 78.0003 90.8001 80.8003 88.9001 83.5003C88.6001 83.9003 88.1001 84.3003 87.6001 84.5003C85.8001 85.3003 84.0001 86.0003 82.2001 86.7003C81.0001 87.2003 80.5001 86.8003 80.5001 85.5003C80.5001 84.7003 80.5001 83.7003 80.5001 82.2003ZM93.0001 63.9003C89.7001 68.7003 86.5001 73.5003 83.3001 78.3003C85.0001 79.4003 86.5001 80.5003 88.1001 81.5003C91.4001 76.7003 94.6001 71.9003 97.8001 67.1003C96.2001 66.0003 94.7001 65.0003 93.0001 63.9003ZM98.9001 65.6003C99.6001 64.5003 100.4 63.5003 101 62.4003C101.7 61.3003 101.2 59.9003 100.1 59.0003C98.9001 58.1003 97.3001 58.0003 96.5001 58.9003C95.6001 59.9003 94.9001 61.1003 94.1001 62.3003C95.7001 63.5003 97.3001 64.5003 98.9001 65.6003ZM86.9001 83.0003C85.3001 81.9003 83.9001 81.0003 82.4001 80.0003C82.4001 81.7003 82.4001 83.2003 82.4001 84.8003C83.9001 84.1003 85.3001 83.6003 86.9001 83.0003Z" fill="#F93F06"/>
<path d="M54.4 85.5003C47.5 85.5003 40.6 85.5003 33.6 85.5003C33.3 85.5003 32.9 85.6003 32.7 85.5003C32.4 85.3003 31.9 85.0003 31.9 84.7003C31.9 84.4003 32.3 84.0003 32.6 83.8003C32.8 83.7003 33.1 83.7003 33.4 83.7003C47.3 83.7003 61.3 83.7003 75.2 83.7003C75.5 83.7003 75.8 83.6003 76 83.8003C76.3 84.0003 76.7 84.4003 76.7 84.7003C76.7 85.0003 76.3 85.4003 75.9 85.6003C75.7 85.7003 75.3 85.6003 75 85.6003C68.2 85.5003 61.3 85.5003 54.4 85.5003Z" fill="#F93F06"/>
<path d="M74.2 61.0002C70.7 61.0002 67.2 61.0002 63.6 61.0002C63.3 61.0002 62.8 61.0002 62.6 60.9002C62.3 60.7002 62 60.3002 62 60.0002C62 59.7002 62.5 59.4002 62.8 59.2002C63 59.1002 63.2 59.2002 63.4 59.2002C70.5 59.2002 77.7 59.2002 84.8 59.2002C85 59.2002 85.4 59.1002 85.5 59.2002C85.8 59.4002 86.2 59.7002 86.2 60.0002C86.2 60.3002 85.9 60.7002 85.6 60.9002C85.4 61.1002 85 61.0002 84.7 61.0002C81.3 61.0002 77.8 61.0002 74.2 61.0002Z" fill="#F93F06"/>
<path d="M73.2001 70.0001C70.2001 70.0001 67.2001 70.0001 64.2001 70.0001C64.0001 70.0001 63.8001 70.0001 63.5001 70.0001C62.8001 70.0001 62.2001 69.9001 62.2001 69.0001C62.2001 68.1001 62.9001 68.1001 63.5001 68.1001C64.1001 68.1001 64.7001 68.1001 65.3001 68.1001C71.1001 68.1001 76.9001 68.1001 82.7001 68.1001C82.9001 68.1001 83.1001 68.1001 83.3001 68.1001C83.9001 68.2001 84.2001 68.4001 84.2001 69.0001C84.2001 69.6001 83.8001 69.9001 83.2001 69.9001C83.0001 69.9001 82.7001 69.9001 82.5001 69.9001C79.4001 70.0001 76.3001 70.0001 73.2001 70.0001Z" fill="#F93F06"/>
<path d="M33.5 40.7002C33.5 41.1002 33.6 41.6002 33.5 41.9002C33.3 42.3002 32.9 42.7002 32.6 42.8002C32.3 42.8002 31.8 42.3002 31.7 42.0002C31.6 41.1002 31.6 40.2002 31.7 39.4002C31.7 39.1002 32.3 38.7002 32.6 38.7002C32.9 38.7002 33.4 39.1002 33.5 39.4002C33.6 39.7002 33.5 40.2002 33.5 40.7002Z" fill="#F93F06"/>
<path d="M36.4 40.7001C36.4 40.3001 36.3 39.8001 36.4 39.5001C36.6 39.1001 36.9 38.6001 37.2 38.6001C37.5 38.6001 38.1 39.1001 38.1 39.4001C38.2 40.3001 38.2 41.1001 38.1 42.0001C38.1 42.3001 37.5 42.8001 37.2 42.8001C36.9 42.8001 36.5 42.3001 36.4 41.9001C36.3 41.5001 36.4 41.1001 36.4 40.7001Z" fill="#F93F06"/>
<path d="M46 58.2002C46 56.3002 47.6 54.7002 49.5 54.7002C51.4 54.7002 53 56.3002 53 58.2002C53 60.2002 51.4 61.8002 49.4 61.8002C47.5 61.7002 46 60.1002 46 58.2002ZM51.1 58.2002C51.1 57.3002 50.4 56.6002 49.4 56.6002C48.5 56.6002 47.8 57.3002 47.8 58.3002C47.8 59.2002 48.6 60.0002 49.5 59.9002C50.4 59.8002 51.2 59.1002 51.1 58.2002Z" fill="#F93F06"/>
</g>
<defs>
<clipPath id="clip0_87_2284">
<rect width="128" height="128" fill="white"/>
</clipPath>
</defs>
</svg>
