<svg width="128" height="128" viewBox="0 0 128 128" fill="none" xmlns="http://www.w3.org/2000/svg">
<path d="M36.9 64C36.9 52.7 36.9 41.3 36.9 30C36.9 28.9 37.3 28.5 38.4 28.5C50.5 28.5 62.6 28.5 74.8 28.5C75.3 28.5 75.8 28.7 76.2 29.1C81 33.9 85.9 38.7 90.7 43.5C91.1 43.9 91.3 44.3 91.3 44.9C91.3 62.6 91.3 80.3 91.3 98C91.3 99.1 90.9 99.5 89.8 99.5C72.7 99.5 55.6 99.5 38.5 99.5C37.4 99.5 37 99.1 37 97.9C37 86.8 37 75.7 37 64.6C36.9 64.4 36.9 64.2 36.9 64ZM39.3 64C39.3 74.7 39.3 85.4 39.3 96.1C39.3 97.1 39.3 97.1 40.3 97.1C56.1 97.1 72 97.1 87.8 97.1C88.8 97.1 88.8 97.1 88.8 96.1C88.8 90.6 88.8 85.1 88.8 79.6C88.8 68.6 88.8 57.6 88.8 46.7C88.8 46 88.6 45.8 87.9 45.8C83.7 45.8 79.6 45.8 75.4 45.8C74.2 45.8 73.8 45.4 73.8 44.2C73.8 40.1 73.8 36 73.8 31.9C73.8 30.9 73.8 30.9 72.9 30.9C62 30.9 51.1 30.9 40.2 30.9C39.2 30.9 39.2 30.9 39.2 31.9C39.3 42.6 39.3 53.3 39.3 64ZM76.2 38.2C76.2 39.7 76.2 41.3 76.2 42.8C76.2 43.3 76.3 43.5 76.8 43.5C79.9 43.5 82.9 43.5 86 43.5C86.2 43.5 86.4 43.4 86.6 43.3C86.5 43.1 86.5 42.9 86.3 42.8C83.2 39.7 80.1 36.5 76.9 33.4C76.8 33.3 76.5 33.2 76.3 33.1C76.2 33.3 76.1 33.5 76.1 33.7C76.2 35.2 76.2 36.7 76.2 38.2Z" fill="#F93F06"/>
<path d="M71.1 66.6998C68.7 66.6998 66.3 66.6998 64 66.6998C63.1 66.6998 62.5 66.1998 62.5 65.4998C62.5 64.7998 63.1 64.2998 63.9 64.2998C68.7 64.2998 73.5 64.2998 78.3 64.2998C79.2 64.2998 79.7 64.6998 79.7 65.3998C79.7 66.1998 79.2 66.5998 78.3 66.5998C75.9 66.6998 73.5 66.6998 71.1 66.6998Z" fill="#F93F06"/>
<path d="M71.2 53.8999C73.7 53.8999 76.1 53.8999 78.6 53.8999C79.2 53.8999 79.6 54.0999 79.7 54.5999C79.8 54.9999 79.7 55.4999 79.4 55.7999C79.2 56.0999 78.7 56.1999 78.3 56.1999C74 56.1999 69.8 56.1999 65.5 56.1999C64.9 56.1999 64.3 56.1999 63.7 56.1999C62.9 56.1999 62.4 55.6999 62.4 54.9999C62.4 54.2999 62.9 53.8999 63.7 53.8999C66.3 53.8999 68.7 53.8999 71.2 53.8999Z" fill="#F93F06"/>
<path d="M71.2 85.2002C73.7 85.2002 76.1 85.2002 78.6 85.2002C79.1 85.2002 79.6 85.4002 79.7 85.9002C79.8 86.3002 79.7 86.8002 79.5 87.1002C79.4 87.3002 78.9 87.5002 78.6 87.5002C73.7 87.5002 68.8 87.5002 63.8 87.5002C63.1 87.5002 62.6 87.0002 62.6 86.4002C62.6 85.7002 63.1 85.2002 63.9 85.2002C66.3 85.2002 68.7 85.2002 71.2 85.2002Z" fill="#F93F06"/>
<path d="M71.2001 77.1002C68.7001 77.1002 66.3001 77.1002 63.8001 77.1002C63.2001 77.1002 62.8001 76.8002 62.6001 76.3002C62.4001 75.8002 62.6001 75.3002 63.0001 75.0002C63.2001 74.8002 63.6001 74.7002 63.9001 74.7002C68.8001 74.7002 73.7001 74.7002 78.5001 74.7002C79.3001 74.7002 79.8001 75.2002 79.8001 75.9002C79.8001 76.6002 79.3001 77.0002 78.5001 77.0002C76.0001 77.1002 73.6001 77.1002 71.2001 77.1002Z" fill="#F93F06"/>
<path d="M48.7 73.0998C49.1 73.3998 49.5 73.4998 49.7 73.6998C50.3 74.1998 50.8 74.6998 51.3 75.2998C51.6 75.6998 51.9 75.6998 52.2 75.2998C53.7 73.7998 55.2 72.2998 56.7 70.7998C57 70.4998 57.4 70.2998 57.8 70.2998C58.1 70.2998 58.6 70.6998 58.8 70.9998C59.1 71.3998 58.9 71.8998 58.6 72.2998C58 72.9998 57.3 73.5998 56.6 74.2998C55.3 75.5998 54.1 76.7998 52.8 78.0998C52.1 78.7998 51.5 78.7998 50.8 78.0998C49.9 77.1998 48.9 76.2998 48 75.2998C47.6 74.8998 47.5 74.3998 47.8 73.8998C48 73.5998 48.4 73.3998 48.7 73.0998Z" fill="#F93F06"/>
<path d="M51.8 68.3C51.5 68.1 51.2 68 51 67.8C50 66.8 49 65.9 48.1 64.9C47.6 64.4 47.6 63.7 48 63.2C48.5 62.7 49.2 62.7 49.7 63.2C50.2 63.7 50.7 64.2 51.1 64.6C51.8 65.3 51.8 65.3 52.4 64.6C53.8 63.2 55.3 61.7 56.8 60.3C57.1 60 57.7 59.8 58 59.9C59 60 59.2 61.2 58.5 61.9C56.9 63.6 55.2 65.2 53.6 66.8C53.3 67.1 53 67.4 52.7 67.7C52.4 68 52.1 68.1 51.8 68.3Z" fill="#F93F06"/>
<path d="M51.7 57.8C51.4 57.6 51.1 57.5 50.8 57.3C49.8 56.4 48.9 55.4 48 54.5C47.5 53.9 47.4 53.2 47.9 52.8C48.4 52.3 49.1 52.3 49.7 52.9C50.2 53.4 50.7 53.9 51.2 54.4C51.6 54.8 51.8 54.8 52.2 54.4C53.7 52.9 55.1 51.4 56.6 50C56.9 49.7 57.4 49.5 57.8 49.5C58.1 49.5 58.6 49.9 58.7 50.2C58.8 50.6 58.8 51.2 58.5 51.4C56.5 53.5 54.5 55.5 52.5 57.5C52.4 57.6 52 57.7 51.7 57.8Z" fill="#F93F06"/>
<path d="M51.8 89.1001C51.5 88.9001 51.1 88.8001 50.9 88.6001C49.9 87.7001 48.9 86.7001 48 85.7001C47.5 85.2001 47.5 84.4001 48 84.0001C48.5 83.5001 49.2 83.6001 49.7 84.1001C50.1 84.5001 50.5 84.9001 50.8 85.2001C51.9 86.3001 51.6 86.3001 52.7 85.2001C54 83.9001 55.3 82.6001 56.6 81.3001C56.7 81.2001 56.9 81.0001 57 80.9001C57.5 80.5001 58.2 80.6001 58.6 81.0001C59 81.4001 59 82.1001 58.6 82.6001C58.2 83.1001 57.8 83.5001 57.3 83.9001C55.8 85.4001 54.3 86.9001 52.8 88.4001C52.5 88.8001 52.2 88.9001 51.8 89.1001Z" fill="#F93F06"/>
</svg>
