<svg width="128" height="128" viewBox="0 0 128 128" fill="none" xmlns="http://www.w3.org/2000/svg">
<path d="M64.2001 28.2002H64.1001C56.9001 28.2002 50.1001 31.0002 45.0001 36.0002C39.9001 41.1002 37.1001 47.8002 37.1001 55.1002C37.1001 69.9002 49.1001 82.0002 63.9001 82.1002C71.1001 82.2002 77.8001 79.4002 82.9001 74.3002C88.0001 69.2002 90.9001 62.4002 90.9001 55.2002C90.9001 40.4002 79.0001 28.3002 64.2001 28.2002ZM64.0001 79.1002C50.8001 79.1002 40.0001 68.3002 40.0001 55.1002C40.0001 41.9002 50.8001 31.2002 64.0001 31.2002C70.4001 31.2002 76.5001 33.7002 81.0001 38.3002C85.5001 42.8002 88.0001 48.9002 88.0001 55.3002C88.0001 68.4002 77.2001 79.1002 64.0001 79.1002Z" fill="#F93F06"/>
<path d="M80.7001 97.3002C80.7001 92.2002 80.7001 87.1002 80.7001 82.1002C80.7001 81.9002 80.7001 81.6002 80.7001 81.4002V81.3002H77.7001V96.5002L77.0001 96.2002C76.7001 96.1002 76.5001 96.1002 76.3001 96.0002C75.2001 95.6002 74.1001 95.3002 73.0001 94.9002C70.1001 93.9002 67.1001 92.9002 64.1001 92.0002C63.4001 91.8002 62.6001 91.8002 61.9001 92.0002C59.2001 92.9002 56.6001 93.8002 54.0001 94.7002C52.9001 95.1002 51.7001 95.5002 50.6001 95.9002C50.4001 96.0002 50.1001 96.0002 49.8001 96.1002C49.7001 96.1002 49.5001 96.2002 49.3001 96.2002L49.0001 96.3002V81.2002H46.1001V81.3002C46.1001 81.5002 46.1001 81.7002 46.1001 81.9002V84.8002C46.1001 89.0002 46.1001 93.2002 46.1001 97.5002C46.1001 98.5002 46.4001 99.2002 46.9001 99.5002C47.4001 99.9002 48.2001 99.9002 49.1001 99.5002C50.5001 99.0002 51.9001 98.5002 53.3001 98.1002C56.2001 97.1002 59.2001 96.1002 62.1001 95.1002C62.7001 94.9002 63.4001 94.9002 64.0001 95.1002C68.4001 96.5002 72.9001 98.0002 77.3001 99.4002L77.6001 99.5002C78.7001 99.9002 79.5001 99.8002 79.9001 99.5002C80.5001 99.1002 80.7001 98.4002 80.7001 97.3002Z" fill="#F93F06"/>
<path d="M76.0002 55C76.3002 54.6 76.6002 54.2 76.8002 53.7C76.9002 53.5 77.0002 53.3 77.1002 53.1C76.9002 51.8 76.0002 50.9 74.8002 50.6C73.3002 50.3 71.8002 50.1 70.2002 49.9C69.3002 49.8 68.8002 49.4 68.5002 48.6C68.2002 47.8 67.8002 47 67.4002 46.2C67.2002 45.7 66.9002 45.2 66.7002 44.7C66.2002 43.6 65.4002 43 64.3002 43C63.3002 43 62.5002 43.5 61.9002 44.6L61.7002 45C61.1002 46.2 60.5002 47.4 59.8002 48.5C59.5002 49 58.9002 49.4 58.4002 49.5C56.9002 49.8 55.4002 50 54.0002 50.1C52.8002 50.6 52.0002 51 51.7002 52C51.3002 53 51.6002 53.9 52.5002 54.9C52.8002 55.2 53.1002 55.5 53.5002 55.9C54.2002 56.6 54.9002 57.3 55.6002 57.9C56.2002 58.5 56.4002 59 56.2002 59.8C56.0002 60.6 55.9002 61.4 55.7002 62.2C55.6002 62.8 55.5002 63.5 55.3002 64.1C55.0002 65.3 55.3002 66.2 56.2002 66.8C57.0002 67.4 58.0002 67.4 59.1002 66.9C59.6002 66.7 60.0002 66.4 60.5002 66.2C61.4002 65.8 62.2002 65.3 63.1002 64.8C63.4002 64.6 63.7002 64.5 64.0002 64.5C64.3002 64.5 64.6002 64.6 65.0002 64.8C65.6002 65.2 66.2002 65.5 66.8002 65.8C67.3002 66.1 67.9002 66.4 68.4002 66.7C69.8002 67.6 70.9002 67.6 72.0002 66.8C73.0002 66.1 73.2002 65.1 72.9002 63.5C72.6002 62.1 72.4002 60.8 72.3002 59.6C72.3002 59.1 72.5002 58.5 72.8002 58.2C73.3002 57.7 73.8002 57.2 74.4002 56.7C74.9002 56.2 75.5002 55.6 76.0002 55ZM72.9002 53.7C72.6002 54.1 72.2002 54.4 71.9002 54.8C71.1002 55.6 70.4002 56.4 69.6002 57.1C68.9002 57.7 68.9002 58.3 69.0002 59.1C69.2002 60.1 69.3002 61.1 69.5002 62.2L69.8002 64.3L69.5002 64C69.1002 63.8 68.6002 63.5 68.2002 63.3C67.3002 62.8 66.5002 62.4 65.8002 61.9C64.5002 61 63.5002 61 62.4002 61.8C61.7002 62.3 61.0002 62.6 60.1002 63.1C59.7002 63.3 59.3002 63.5 58.8002 63.7L58.3002 63.9L58.4002 63.4C58.5002 62.9 58.6002 62.4 58.7002 61.9C58.9002 60.8 59.1002 59.7 59.3002 58.7C59.5002 58 59.3002 57.5 58.8002 57C58.0002 56.3 57.2002 55.6 56.5002 54.9C56.2002 54.6 55.9002 54.3 55.5002 54L55.4002 53.9L55.7002 53.3H55.8002C56.2002 53.2 56.7002 53.2 57.1002 53.1C58.1002 52.9 59.1002 52.8 60.2002 52.7C61.1002 52.6 61.6002 52.3 61.9002 51.5C62.3002 50.5 62.8002 49.6 63.4002 48.6C63.6002 48.2 63.9002 47.7 64.1002 47.2L64.3002 46.8L64.5002 47.2C64.7002 47.7 65.0002 48.2 65.2002 48.6C65.7002 49.7 66.2002 50.7 66.7002 51.7C67.0002 52.3 67.3002 52.5 68.0002 52.6C69.1002 52.8 70.2002 52.9 71.3002 53.1L73.1002 53.4L72.9002 53.7Z" fill="#F93F06"/>
<path d="M63.7001 38.2004V35.4004C57.6001 35.7004 52.7001 38.0004 48.9001 42.5004C45.9001 46.1004 44.4001 50.2004 44.4001 54.7004H47.0001C48.3001 44.9004 53.9001 39.3004 63.7001 38.2004Z" fill="#F93F06"/>
</svg>
