<svg width="128" height="128" viewBox="0 0 128 128" fill="none" xmlns="http://www.w3.org/2000/svg">
<path d="M53.2999 74.8002V55.8002L54.5 57.2002H48.7V54.7002H56.0999V75.0002H53.2999V74.8002Z" fill="#F93F06"/>
<path d="M68.9 75.1C67.3 75.1 65.9 74.7 64.7 73.9C63.5 73.1 62.5 71.9 61.7 70.4C61 68.9 60.6 67 60.6 64.8C60.6 62.6 61 60.7 61.7 59.2C62.4 57.7 63.4 56.5 64.7 55.7C65.9 54.9 67.4 54.5 68.9 54.5C70.5 54.5 71.9 54.9 73.1 55.7C74.3 56.5 75.3 57.7 76.1 59.2C76.8 60.7 77.2 62.6 77.2 64.8C77.2 67 76.8 68.9 76.1 70.4C75.4 71.9 74.4 73.1 73.1 73.9C71.9 74.7 70.5 75.1 68.9 75.1ZM68.9 72.5C70 72.5 70.9 72.2 71.7 71.6C72.5 71 73.1 70.2 73.6 69C74.1 67.8 74.3 66.4 74.3 64.7C74.3 63 74.1 61.5 73.6 60.4C73.1 59.2 72.5 58.4 71.7 57.8C70.9 57.2 70 56.9 68.9 56.9C67.8 56.9 66.9 57.2 66.1 57.8C65.3 58.4 64.7 59.2 64.2 60.4C63.7 61.6 63.5 63 63.5 64.7C63.5 66.4 63.7 67.9 64.2 69C64.7 70.2 65.3 71 66.1 71.6C66.9 72.2 67.9 72.5 68.9 72.5Z" fill="#F93F06"/>
<path d="M94.2 75H91.6C87.2 86.1 76.3 94.1 63.6 94.1C47 94.1 33.5 80.6 33.5 64C33.5 47.4 47 33.9 63.6 33.9C75.3 33.9 85.5 40.6 90.5 50.5H93.2C88.1 39.3 76.7 31.5 63.6 31.5C45.7 31.5 31.1 46.1 31.1 64C31.1 81.9 45.7 96.5 63.6 96.5C77.7 96.5 89.7 87.6 94.2 75Z" fill="#F93F06"/>
<path d="M92 50.2998H96.9L94.5 54.4998L92 58.7998L89.5 54.4998L87.1 50.2998H92Z" fill="#F93F06"/>
</svg>
