<svg width="128" height="128" viewBox="0 0 128 128" fill="none" xmlns="http://www.w3.org/2000/svg">
<g clip-path="url(#clip0_87_2221)">
<path d="M45.4 85.5C45.7 85.7 46.2 85.8 46.7 85.8C49.2 85.8 51.6 85.8 54.1 85.8C56.2 85.8 58.3 85.8 60.3 85.8C60.8 85.8 61.3 86.1 61.5 86.2C61.9 86.5 62.3 86.8 62.8 87.1C63.4 87.6 64.0999 88.1 64.6999 88.5C73.6999 93.8 84.6999 92.9 92.6999 86.1C101.2 78.8 103.5 66 97.9 56.3C97.6 55.9 97.3999 55.4 97.0999 55L96.5 54.1L98.6999 52.4L99.3 53.2C99.6 53.5 99.8999 53.9 100.1 54.2C100.3 54.5 100.6 54.6 100.9 54.4C101.3 54.2 101.6 54 101.8 53.7C102.1 53.4 102.1 53.2 101.8 52.7L100.4 51C99.5 49.8 98.5 48.7 97.5999 47.5C97.2999 47.2 97.0999 47.1 96.6999 47.3C96.3999 47.5 96.1 47.7 95.9 47.9C95.6 48.3 95.6 48.5 95.9 48.9L97.1999 50.6L95 52.4L94.5999 52C90.2999 47.4 85 44.8 78.8 44.2H78.5V39.2L78.6999 39.1C78.7999 39 78.9 39 79 39C79.7 39 80.4999 39 81.1999 39C81.8999 39 82.0999 38.8 82.1999 38.2C82.2999 37.8 82.2999 37.3 82.1999 36.9C82.0999 36.2 81.7999 36 81.0999 36C78.2999 36 75.4 36 72.6 36C71.9 36 71.6 36.2 71.5 36.8C71.4 37.3 71.5 37.8 71.6 38.3C71.7 38.8 71.9 38.9 72.5 38.9C73.1 38.9 73.5999 38.9 74.1999 38.9H75.3V44.1L74.8 44.2C74.7 44.2 74.6 44.2 74.4 44.3C69.6 44.8 65.2 46.7 61.4 49.8C61.1 50.1 60.7 50.2 60.3 50.2C57 50.2 53.7 50.2 50.4 50.2H46.9C46.6 50.2 46.3 50.2 46 50.2C45.4 50.3 44.9 50.7 44.8 51.4C44.7 51.8 44.8 52.3 45.1 52.6C45.4 53 45.9 53.2 46.5 53.2H52.1C55.3 53.2 58.4 53.2 61.6 53.2C61.9 53.2 62.1 53.1 62.4 52.9C68.9 47.1 76.1999 45.6 84.1999 48.4C92.7999 51.5 98.1 59.5 97.9 68.8C97.6 78.5 90.3 87 80.8 88.6C73.9 89.8 67.7 88 62.5 83.2C62.2 82.9 61.9 82.8 61.5 82.8C58 82.8 54.6 82.8 51.1 82.8H46.6C46.4 82.8 46.2 82.8 46 82.9C45.4 83 45 83.4 44.9 84C44.8 84.5 44.8 85.1 45.4 85.5Z" fill="#F93F06"/>
<path d="M38.4 77.6999C43 77.6999 47.7 77.6999 52.3 77.6999H58.2C55.1 71.2999 55.1 64.7999 58.2 58.3999H38.4C38.3 58.3999 38.2 58.3999 38.1 58.3999C37.7 58.3999 37.3 58.5999 37.1 58.8999C36.8 59.1999 36.7 59.5999 36.8 59.9999C36.9 60.7999 37.5 61.2999 38.5 61.2999H53.9L53.5 62.9999C53.4 63.8999 53.2 64.6999 53.1 65.4999C53 66.4999 52.8 66.5999 51.9 66.5999H35.7H33.5C31.6 66.5999 29.6 66.5999 27.6 66.5999C26.9 66.5999 26.5 66.7999 26.2 67.2999C25.9 67.7999 25.9 68.2999 26.2 68.6999C26.5 69.1999 27 69.4999 27.6 69.4999H52.8L53.7 74.6999H39.4C39.2 74.6999 39 74.6999 38.8 74.6999C38.5 74.6999 38.3 74.6999 38 74.6999C37.4 74.6999 36.9 74.9999 36.7 75.4999C36.5 75.9999 36.5 76.4999 36.8 76.9999C37.3 77.4999 37.7 77.6999 38.4 77.6999Z" fill="#F93F06"/>
<path d="M87.7 59.1999C87.2 59.0999 86.7 59.1999 86.2 59.6999C83.7 62.1999 81.1 64.6999 78.6 67.1999L74.6 71.0999L73.9 70.3999L67.7 64.5999C67.3 64.1999 66.9 63.9999 66.5 63.9999C66.1 63.9999 65.8 64.0999 65.5 64.3999C65.2 64.6999 65.1 64.9999 65.1 65.3999C65.1 65.7999 65.3 66.2999 65.7 66.5999L73.4 73.7999C74.4 74.6999 75.1 74.6999 76.1 73.7999L84.5 65.4999C85.8 64.1999 87.1 62.8999 88.4 61.6999C88.8 61.2999 89 60.6999 88.8 60.1999C88.6 59.6999 88.2 59.2999 87.7 59.1999Z" fill="#F93F06"/>
</g>
<defs>
<clipPath id="clip0_87_2221">
<rect width="128" height="128" fill="white"/>
</clipPath>
</defs>
</svg>
